<?xml version="1.0" encoding="UTF-8"?>
<!DOCTYPE svg PUBLIC "-//W3C//DTD SVG 1.1//EN" "http://www.w3.org/Graphics/SVG/1.1/DTD/svg11.dtd">
<svg xmlns="http://www.w3.org/2000/svg" version="1.1" width="24px" height="24px" style="shape-rendering:geometricPrecision; text-rendering:geometricPrecision; image-rendering:optimizeQuality; fill-rule:evenodd; clip-rule:evenodd" xmlns:xlink="http://www.w3.org/1999/xlink">
<g><path style="opacity:0.744" fill="#ff9810" d="M 13.5,5.5 C 13.5,5.83333 13.5,6.16667 13.5,6.5C 12.8333,6.5 12.5,6.83333 12.5,7.5C 11.1667,7.5 9.83333,7.5 8.5,7.5C 6.10466,5.09204 6.10466,2.7587 8.5,0.5C 9.88473,4.37785 11.0514,4.37785 12,0.5C 13.2692,1.90469 13.7692,3.57135 13.5,5.5 Z"/></g>
<g><path style="opacity:0.645" fill="#ec1d24" d="M 21.5,7.5 C 20.5,7.5 19.5,7.5 18.5,7.5C 17.8333,4.83333 17.1667,4.83333 16.5,7.5C 15.8333,7.5 15.1667,7.5 14.5,7.5C 14.1667,7.5 13.8333,7.5 13.5,7.5C 13.5,7.16667 13.5,6.83333 13.5,6.5C 13.5,6.16667 13.5,5.83333 13.5,5.5C 17.1962,1.33116 19.8628,1.99783 21.5,7.5 Z"/></g>
<g><path style="opacity:1" fill="#e6d2d4" d="M 18.5,7.5 C 17.8333,7.5 17.1667,7.5 16.5,7.5C 17.1667,4.83333 17.8333,4.83333 18.5,7.5 Z"/></g>
<g><path style="opacity:0.922" fill="#c19365" d="M 8.5,7.5 C 9.83333,7.5 11.1667,7.5 12.5,7.5C 12.8333,7.5 13.1667,7.5 13.5,7.5C 13.8333,7.5 14.1667,7.5 14.5,7.5C 14.5,10.8333 14.5,14.1667 14.5,17.5C 12.2362,16.7814 9.90291,16.448 7.5,16.5C 7.5,16.1667 7.5,15.8333 7.5,15.5C 7.56681,13.5992 7.23348,11.7659 6.5,10C 6.63874,8.69895 7.30541,7.86562 8.5,7.5 Z"/></g>
<g><path style="opacity:1" fill="#a17048" d="M 14.5,7.5 C 15.1667,7.5 15.8333,7.5 16.5,7.5C 17.1667,7.5 17.8333,7.5 18.5,7.5C 19.5,7.5 20.5,7.5 21.5,7.5C 22.2318,10.0675 22.2318,12.7342 21.5,15.5C 19.4306,17.733 17.0972,18.3996 14.5,17.5C 14.5,14.1667 14.5,10.8333 14.5,7.5 Z"/></g>
<g><path style="opacity:0.965" fill="#0467e1" d="M 7.5,15.5 C 7.5,15.8333 7.5,16.1667 7.5,16.5C 6.25844,18.3888 6.25844,20.3888 7.5,22.5C 5.16667,22.5 2.83333,22.5 0.5,22.5C 0.5,20.1667 0.5,17.8333 0.5,15.5C 2.83333,15.5 5.16667,15.5 7.5,15.5 Z"/></g>
<g><path style="opacity:0.851" fill="#fbb8a8" d="M 21.5,15.5 C 22.5735,16.2506 22.7401,17.2506 22,18.5C 17.8345,22.0271 13.0011,23.3605 7.5,22.5C 6.25844,20.3888 6.25844,18.3888 7.5,16.5C 9.90291,16.448 12.2362,16.7814 14.5,17.5C 17.0972,18.3996 19.4306,17.733 21.5,15.5 Z"/></g>
</svg>
