<?xml version="1.0" encoding="UTF-8"?>
<!DOCTYPE svg PUBLIC "-//W3C//DTD SVG 1.1//EN" "http://www.w3.org/Graphics/SVG/1.1/DTD/svg11.dtd">
<svg xmlns="http://www.w3.org/2000/svg" version="1.1" width="24px" height="24px" style="shape-rendering:geometricPrecision; text-rendering:geometricPrecision; image-rendering:optimizeQuality; fill-rule:evenodd; clip-rule:evenodd" xmlns:xlink="http://www.w3.org/1999/xlink">
<g><path style="opacity:0.923" fill="#f0c419" d="M 3.5,-0.5 C 7.5,-0.5 11.5,-0.5 15.5,-0.5C 14.7979,2.4398 13.7979,5.27313 12.5,8C 14.5767,8.19221 16.5767,8.69221 18.5,9.5C 17.1335,10.84 15.8001,12.1733 14.5,13.5C 8.85552,12.4809 5.85552,14.8143 5.5,20.5C 4.83333,21.5 4.16667,22.5 3.5,23.5C 2.5,23.5 1.5,23.5 0.5,23.5C 1.73317,19.9679 3.0665,16.4679 4.5,13C 2.86586,12.5065 1.19919,12.3398 -0.5,12.5C -0.5,11.1667 -0.5,9.83333 -0.5,8.5C 1.07221,5.68198 2.40554,2.68198 3.5,-0.5 Z"/></g>
<g><path style="opacity:0.969" fill="#e6513e" d="M 14.5,13.5 C 17.5,13.5 20.5,13.5 23.5,13.5C 23.5,16.8333 23.5,20.1667 23.5,23.5C 18.1667,23.5 12.8333,23.5 7.5,23.5C 7.57298,21.9731 6.90632,20.9731 5.5,20.5C 5.85552,14.8143 8.85552,12.4809 14.5,13.5 Z"/></g>
<g><path style="opacity:1" fill="#eaaba4" d="M 10.5,15.5 C 12.6687,16.0818 15.002,16.0818 17.5,15.5C 18.1667,22.1667 18.8333,22.1667 19.5,15.5C 22.5983,15.4125 22.9316,15.9125 20.5,17C 21.8333,18 21.8333,19 20.5,20C 21.1667,20.3333 21.8333,20.6667 22.5,21C 19.6212,21.9574 17.1212,21.4574 15,19.5C 13.5074,21.5598 11.6741,21.8932 9.5,20.5C 9.5786,18.8717 9.91194,17.2051 10.5,15.5 Z"/></g>
</svg>
