<?xml version="1.0" encoding="UTF-8"?>
<!DOCTYPE svg PUBLIC "-//W3C//DTD SVG 1.1//EN" "http://www.w3.org/Graphics/SVG/1.1/DTD/svg11.dtd">
<svg xmlns="http://www.w3.org/2000/svg" version="1.1" width="24px" height="24px" style="shape-rendering:geometricPrecision; text-rendering:geometricPrecision; image-rendering:optimizeQuality; fill-rule:evenodd; clip-rule:evenodd" xmlns:xlink="http://www.w3.org/1999/xlink">
<g><path style="opacity:0.455" fill="#1a1506" d="M 9.5,-0.5 C 12.5,-0.5 15.5,-0.5 18.5,-0.5C 17.4434,1.9413 16.11,4.27463 14.5,6.5C 15.8333,7.16667 17.1667,7.83333 18.5,8.5C 16.1895,12.476 13.1895,15.8093 9.5,18.5C 8.92499,20.4113 7.92499,22.078 6.5,23.5C 5.83333,23.5 5.16667,23.5 4.5,23.5C 5.40627,19.8512 6.73961,16.3512 8.5,13C 7.20677,12.51 5.87344,12.3433 4.5,12.5C 5.88255,8.06643 7.54921,3.73309 9.5,-0.5 Z"/></g>
<g><path style="opacity:1" fill="#f7d10f" d="M 12.5,0.5 C 13.8734,0.343323 15.2068,0.50999 16.5,1C 14.9684,3.03443 13.6351,5.2011 12.5,7.5C 13.7287,8.28107 15.062,8.78107 16.5,9C 15.2899,10.0391 14.2899,11.2058 13.5,12.5C 12.5041,12.4142 11.6708,12.7476 11,13.5C 10.7216,12.5842 10.2216,11.9175 9.5,11.5C 8.83333,11.5 8.16667,11.5 7.5,11.5C 8.89507,7.70986 10.5617,4.04319 12.5,0.5 Z"/></g>
<g><path style="opacity:1" fill="#d8d3be" d="M 12.5,0.5 C 10.5617,4.04319 8.89507,7.70986 7.5,11.5C 6.42654,10.7494 6.25988,9.74943 7,8.5C 8.13917,5.17689 9.9725,2.51023 12.5,0.5 Z"/></g>
<g><path style="opacity:1" fill="#cb9106" d="M 9.5,11.5 C 10.2216,11.9175 10.7216,12.5842 11,13.5C 11.6708,12.7476 12.5041,12.4142 13.5,12.5C 11.7484,14.2459 10.4151,16.2459 9.5,18.5C 8.6365,19.463 7.96983,19.463 7.5,18.5C 8.57706,16.2706 9.24372,13.9372 9.5,11.5 Z"/></g>
</svg>
