<?xml version="1.0" encoding="UTF-8"?>
<!DOCTYPE svg PUBLIC "-//W3C//DTD SVG 1.1//EN" "http://www.w3.org/Graphics/SVG/1.1/DTD/svg11.dtd">
<svg xmlns="http://www.w3.org/2000/svg" version="1.1" width="512px" height="512px" style="shape-rendering:geometricPrecision; text-rendering:geometricPrecision; image-rendering:optimizeQuality; fill-rule:evenodd; clip-rule:evenodd" xmlns:xlink="http://www.w3.org/1999/xlink">
<g><path style="opacity:0.996" fill="#29b4fa" d="M 322.5,83.5 C 321.127,83.6567 319.793,83.49 318.5,83C 292.266,67.0504 265.6,51.8838 238.5,37.5C 241.183,20.3121 251.183,13.1454 268.5,16C 278.535,20.5575 283.702,28.3909 284,39.5C 285.214,41.0488 286.714,42.2155 288.5,43C 299.828,43.4999 311.162,43.6665 322.5,43.5C 322.5,56.8333 322.5,70.1667 322.5,83.5 Z"/></g>
<g><path style="opacity:0.997" fill="#28aff9" d="M 238.5,37.5 C 265.6,51.8838 292.266,67.0504 318.5,83C 319.793,83.49 321.127,83.6567 322.5,83.5C 310.345,84.4952 298.011,84.8286 285.5,84.5C 285.5,84.1667 285.5,83.8333 285.5,83.5C 290.511,83.6659 295.511,83.4993 300.5,83C 277.774,70.3111 255.441,57.1444 233.5,43.5C 236.229,42.4334 237.896,40.4334 238.5,37.5 Z"/></g>
<g><path style="opacity:0.996" fill="#26abf7" d="M 233.5,43.5 C 255.441,57.1444 277.774,70.3111 300.5,83C 295.511,83.4993 290.511,83.6659 285.5,83.5C 274.162,83.6665 262.828,83.4999 251.5,83C 234.274,72.8897 216.941,63.0564 199.5,53.5C 199.5,50.1667 199.5,46.8333 199.5,43.5C 210.833,43.5 222.167,43.5 233.5,43.5 Z"/></g>
<g><path style="opacity:0.923" fill="#23a0f4" d="M 130.5,70.5 C 124.43,66.442 118.097,62.7753 111.5,59.5C 113.476,57.9891 115.809,57.1558 118.5,57C 141.164,56.5 163.831,56.3334 186.5,56.5C 186.5,61.1667 186.5,65.8333 186.5,70.5C 167.833,70.5 149.167,70.5 130.5,70.5 Z"/></g>
<g><path style="opacity:0.934" fill="#2cbcfd" d="M 430.5,129.5 C 429.926,127.212 428.926,125.045 427.5,123C 424.088,121.545 420.921,119.712 418,117.5C 417.79,119.058 417.29,120.391 416.5,121.5C 416.667,108.829 416.5,96.1623 416,83.5C 413.762,76.9299 409.262,72.7633 402.5,71C 380.169,70.5 357.836,70.3334 335.5,70.5C 335.5,65.8333 335.5,61.1667 335.5,56.5C 358.169,56.3334 380.836,56.5 403.5,57C 417.881,59.7145 426.715,68.2145 430,82.5C 430.5,98.1631 430.667,113.83 430.5,129.5 Z"/></g>
<g><path style="opacity:0.984" fill="#25a6f5" d="M 199.5,53.5 C 216.941,63.0564 234.274,72.8897 251.5,83C 262.828,83.4999 274.162,83.6665 285.5,83.5C 285.5,83.8333 285.5,84.1667 285.5,84.5C 256.833,84.5 228.167,84.5 199.5,84.5C 199.5,74.1667 199.5,63.8333 199.5,53.5 Z"/></g>
<g><path style="opacity:0.963" fill="#2199f1" d="M 111.5,59.5 C 118.097,62.7753 124.43,66.442 130.5,70.5C 117.304,68.5816 108.971,73.9149 105.5,86.5C 104.85,86.8039 104.183,87.1373 103.5,87.5C 99.9392,85.2212 96.2726,83.2212 92.5,81.5C 94.6662,70.4634 101,63.1301 111.5,59.5 Z"/></g>
<g><path style="opacity:0.948" fill="#1e92ef" d="M 92.5,81.5 C 96.2726,83.2212 99.9392,85.2212 103.5,87.5C 104.183,87.1373 104.85,86.8039 105.5,86.5C 105.5,96.5 105.5,106.5 105.5,116.5C 101.145,114.571 96.9788,112.238 93,109.5C 92.8195,112.695 92.3195,115.695 91.5,118.5C 91.2266,106.129 91.56,93.7961 92.5,81.5 Z"/></g>
<g><path style="opacity:0.98" fill="#2099f1" d="M 154.5,83.5 C 184.331,101.137 214.331,118.637 244.5,136C 241.964,136.186 239.631,136.686 237.5,137.5C 232.137,137.688 229.97,140.355 231,145.5C 231.5,147.333 232.667,148.5 234.5,149C 248.829,149.5 263.163,149.667 277.5,149.5C 275.369,150.314 273.036,150.814 270.5,151C 280.5,156.667 290.5,162.333 300.5,168C 297.964,168.186 295.631,168.686 293.5,169.5C 277.167,169.5 260.833,169.5 244.5,169.5C 233.777,162.137 222.444,155.804 210.5,150.5C 209.513,148.527 208.513,146.527 207.5,144.5C 210.188,141.646 212.688,138.646 215,135.5C 215.691,129.857 213.191,127.024 207.5,127C 204.328,129.006 201.662,131.506 199.5,134.5C 190.461,127.321 180.127,124.321 168.5,125.5C 152.169,115.332 135.502,105.665 118.5,96.5C 118.203,92.2325 118.536,88.0659 119.5,84C 131.162,83.5001 142.829,83.3335 154.5,83.5 Z"/></g>
<g><path style="opacity:0.984" fill="#29b3fa" d="M 404.5,142.5 C 377.499,127.669 350.832,112.335 324.5,96.5C 333.487,96.8386 337.153,92.5052 335.5,83.5C 357.836,83.3334 380.169,83.5 402.5,84C 403.126,84.7504 403.626,85.5838 404,86.5C 404.5,105.164 404.667,123.83 404.5,142.5 Z"/></g>
<g><path style="opacity:0.99" fill="#239ff3" d="M 154.5,83.5 C 165.167,83.5 175.833,83.5 186.5,83.5C 185.628,88.4466 186.961,92.6132 190.5,96C 199.827,96.4998 209.161,96.6665 218.5,96.5C 221.641,97.3213 224.975,97.8213 228.5,98C 250.5,110.667 272.5,123.333 294.5,136C 291.964,136.186 289.631,136.686 287.5,137.5C 270.833,137.5 254.167,137.5 237.5,137.5C 239.631,136.686 241.964,136.186 244.5,136C 214.331,118.637 184.331,101.137 154.5,83.5 Z"/></g>
<g><path style="opacity:0.984" fill="#24a5f5" d="M 218.5,96.5 C 237.5,96.5 256.5,96.5 275.5,96.5C 298.665,109.915 321.665,123.581 344.5,137.5C 325.5,137.5 306.5,137.5 287.5,137.5C 289.631,136.686 291.964,136.186 294.5,136C 272.5,123.333 250.5,110.667 228.5,98C 224.975,97.8213 221.641,97.3213 218.5,96.5 Z"/></g>
<g><path style="opacity:0.979" fill="#26abf7" d="M 275.5,96.5 C 291.833,96.5 308.167,96.5 324.5,96.5C 350.832,112.335 377.499,127.669 404.5,142.5C 404.5,150.5 404.5,158.5 404.5,166.5C 403.71,167.609 403.21,168.942 403,170.5C 391.751,164.126 380.585,157.626 369.5,151C 370.737,150.768 371.737,150.268 372.5,149.5C 377.757,149.312 379.924,146.645 379,141.5C 378.5,139.667 377.333,138.5 375.5,138C 365.172,137.5 354.839,137.334 344.5,137.5C 321.665,123.581 298.665,109.915 275.5,96.5 Z"/></g>
<g><path style="opacity:0.99" fill="#1e92ef" d="M 118.5,96.5 C 135.502,105.665 152.169,115.332 168.5,125.5C 158.643,128.02 150.643,133.353 144.5,141.5C 143.969,139.376 142.635,137.876 140.5,137C 133.021,133.006 125.688,128.839 118.5,124.5C 118.5,115.167 118.5,105.833 118.5,96.5 Z"/></g>
<g><path style="opacity:0.963" fill="#29b2fa" d="M 430.5,129.5 C 430.666,134.511 430.499,139.511 430,144.5C 426.31,150.56 422.143,156.227 417.5,161.5C 416.501,148.183 416.167,134.85 416.5,121.5C 417.29,120.391 417.79,119.058 418,117.5C 420.921,119.712 424.088,121.545 427.5,123C 428.926,125.045 429.926,127.212 430.5,129.5 Z"/></g>
<g><path style="opacity:0.985" fill="#1c8ced" d="M 118.5,124.5 C 125.688,128.839 133.021,133.006 140.5,137C 142.635,137.876 143.969,139.376 144.5,141.5C 140.317,148.227 137.984,155.56 137.5,163.5C 131.298,159.899 124.964,156.566 118.5,153.5C 118.5,143.833 118.5,134.167 118.5,124.5 Z"/></g>
<g><path style="opacity:0.979" fill="#29b3fa" d="M 462.5,176.5 C 453.167,171.167 443.833,165.833 434.5,160.5C 441.753,149.399 449.253,138.399 457,127.5C 459.627,125.012 462.46,124.845 465.5,127C 472.92,131.586 479.586,137.086 485.5,143.5C 478.165,154.817 470.498,165.817 462.5,176.5 Z"/></g>
<g><path style="opacity:0.935" fill="#1b88eb" d="M 105.5,116.5 C 105.5,135.5 105.5,154.5 105.5,173.5C 101.643,171.161 97.6432,168.994 93.5,167C 92.8906,165.052 92.224,163.218 91.5,161.5C 91.5,147.167 91.5,132.833 91.5,118.5C 92.3195,115.695 92.8195,112.695 93,109.5C 96.9788,112.238 101.145,114.571 105.5,116.5 Z"/></g>
<g><path style="opacity:0.96" fill="#1e92ef" d="M 157.5,156.5 C 155.5,156.167 153.5,155.833 151.5,155.5C 157.267,140.782 167.934,135.282 183.5,139C 186.456,139.962 188.79,141.628 190.5,144C 185.669,149.664 180.669,155.164 175.5,160.5C 171.676,157.506 167.51,155.173 163,153.5C 160.601,153.613 158.768,154.613 157.5,156.5 Z"/></g>
<g><path style="opacity:0.98" fill="#239ff3" d="M 277.5,149.5 C 293.833,149.5 310.167,149.5 326.5,149.5C 324.708,150.309 322.708,150.809 320.5,151C 330.897,157.193 341.23,163.359 351.5,169.5C 332.167,169.5 312.833,169.5 293.5,169.5C 295.631,168.686 297.964,168.186 300.5,168C 290.5,162.333 280.5,156.667 270.5,151C 273.036,150.814 275.369,150.314 277.5,149.5 Z"/></g>
<g><path style="opacity:0.959" fill="#24a5f5" d="M 326.5,149.5 C 341.833,149.5 357.167,149.5 372.5,149.5C 371.737,150.268 370.737,150.768 369.5,151C 380.585,157.626 391.751,164.126 403,170.5C 403.21,168.942 403.71,167.609 404.5,166.5C 404.666,171.511 404.499,176.511 404,181.5C 401.055,185.751 397.888,189.751 394.5,193.5C 389.062,190.947 383.729,188.113 378.5,185C 376.937,184.241 375.937,183.074 375.5,181.5C 380.246,178.427 380.579,174.927 376.5,171C 368.277,169.562 359.943,169.062 351.5,169.5C 341.23,163.359 330.897,157.193 320.5,151C 322.708,150.809 324.708,150.309 326.5,149.5 Z"/></g>
<g><path style="opacity:0.99" fill="#1e92ef" d="M 210.5,150.5 C 222.444,155.804 233.777,162.137 244.5,169.5C 241.15,169.335 237.817,169.502 234.5,170C 229.702,173.307 229.369,176.974 233.5,181C 245.399,182.459 257.399,182.959 269.5,182.5C 294.167,197.167 318.833,211.833 343.5,226.5C 327.167,226.5 310.833,226.5 294.5,226.5C 266.43,209.775 238.097,193.442 209.5,177.5C 212.991,168.609 213.325,159.609 210.5,150.5 Z"/></g>
<g><path style="opacity:0.968" fill="#1a86eb" d="M 118.5,153.5 C 124.964,156.566 131.298,159.899 137.5,163.5C 141.942,189.442 157.276,201.275 183.5,199C 186.894,197.925 190.228,196.758 193.5,195.5C 210.833,205.833 228.167,216.167 245.5,226.5C 242.15,226.335 238.817,226.502 235.5,227C 229.26,230.528 228.927,234.528 234.5,239C 246.162,239.5 257.829,239.667 269.5,239.5C 279.77,245.641 290.103,251.807 300.5,258C 298.292,258.191 296.292,258.691 294.5,259.5C 278.167,259.5 261.833,259.5 245.5,259.5C 247.292,258.691 249.292,258.191 251.5,258C 237.139,249.821 222.806,241.655 208.5,233.5C 211.019,230.143 213.352,226.643 215.5,223C 214.055,217.178 210.722,215.511 205.5,218C 203.615,220.222 201.449,222.056 199,223.5C 193.253,219.045 186.753,216.378 179.5,215.5C 159.115,204.469 138.781,193.136 118.5,181.5C 118.5,172.167 118.5,162.833 118.5,153.5 Z"/></g>
<g><path style="opacity:0.963" fill="#1d8ced" d="M 151.5,155.5 C 153.5,155.833 155.5,156.167 157.5,156.5C 156.023,159.761 156.689,162.594 159.5,165C 164.994,168.83 170.828,171.996 177,174.5C 177.833,174.333 178.667,174.167 179.5,174C 186.032,167.802 192.199,161.302 198,154.5C 202.092,167.549 198.259,177.715 186.5,185C 168.813,190.739 156.98,184.906 151,167.5C 150.306,163.446 150.473,159.446 151.5,155.5 Z"/></g>
<g><path style="opacity:0.984" fill="#26abf7" d="M 434.5,160.5 C 443.833,165.833 453.167,171.167 462.5,176.5C 458.19,183.466 453.523,190.133 448.5,196.5C 438.967,190.901 429.3,185.567 419.5,180.5C 424.025,173.437 429.025,166.771 434.5,160.5 Z"/></g>
<g><path style="opacity:0.86" fill="#187fe8" d="M 91.5,161.5 C 92.224,163.218 92.8906,165.052 93.5,167C 97.6432,168.994 101.643,171.161 105.5,173.5C 105.5,184.5 105.5,195.5 105.5,206.5C 101.118,204.559 96.9515,202.226 93,199.5C 92.8195,202.695 92.3195,205.695 91.5,208.5C 91.5,192.833 91.5,177.167 91.5,161.5 Z"/></g>
<g><path style="opacity:0.993" fill="#2098f1" d="M 269.5,182.5 C 288.5,182.5 307.5,182.5 326.5,182.5C 344.166,193.336 362.166,203.669 380.5,213.5C 374.548,222.782 368.215,231.782 361.5,240.5C 360.386,237.225 358.053,235.058 354.5,234C 353.667,231.833 352.167,230.333 350,229.5C 349.601,229.728 349.435,230.062 349.5,230.5C 347.772,228.774 345.772,227.441 343.5,226.5C 318.833,211.833 294.167,197.167 269.5,182.5 Z"/></g>
<g><path style="opacity:0.986" fill="#229ef3" d="M 375.5,181.5 C 375.937,183.074 376.937,184.241 378.5,185C 383.729,188.113 389.062,190.947 394.5,193.5C 390.323,200.525 385.656,207.192 380.5,213.5C 362.166,203.669 344.166,193.336 326.5,182.5C 342.881,182.804 359.214,182.471 375.5,181.5 Z"/></g>
<g><path style="opacity:0.991" fill="#1c8ced" d="M 209.5,177.5 C 238.097,193.442 266.43,209.775 294.5,226.5C 278.167,226.5 261.833,226.5 245.5,226.5C 228.167,216.167 210.833,205.833 193.5,195.5C 200.574,191.09 205.908,185.09 209.5,177.5 Z"/></g>
<g><path style="opacity:0.984" fill="#24a5f5" d="M 419.5,180.5 C 429.3,185.567 438.967,190.901 448.5,196.5C 443.733,203.714 438.733,210.714 433.5,217.5C 424.535,211.345 415.202,205.679 405.5,200.5C 410.167,193.833 414.833,187.167 419.5,180.5 Z"/></g>
<g><path style="opacity:0.992" fill="#187fe8" d="M 118.5,181.5 C 138.781,193.136 159.115,204.469 179.5,215.5C 170.011,214.539 161.345,216.705 153.5,222C 149.602,225.729 145.935,229.562 142.5,233.5C 134.836,228.332 126.836,223.665 118.5,219.5C 118.5,206.833 118.5,194.167 118.5,181.5 Z"/></g>
<g><path style="opacity:0.982" fill="#239ff3" d="M 405.5,200.5 C 415.202,205.679 424.535,211.345 433.5,217.5C 429.554,224.405 424.887,230.738 419.5,236.5C 410.167,231.167 400.833,225.833 391.5,220.5C 395.81,213.534 400.477,206.867 405.5,200.5 Z"/></g>
<g><path style="opacity:0.986" fill="#1679e6" d="M 118.5,219.5 C 126.836,223.665 134.836,228.332 142.5,233.5C 139.608,239.846 137.941,246.513 137.5,253.5C 131.003,250.086 124.67,246.419 118.5,242.5C 118.5,234.833 118.5,227.167 118.5,219.5 Z"/></g>
<g><path style="opacity:0.981" fill="#2097f1" d="M 391.5,220.5 C 400.833,225.833 410.167,231.167 419.5,236.5C 411.601,248.616 403.434,260.616 395,272.5C 393.951,273.517 392.784,273.684 391.5,273C 383.469,266.991 375.469,260.991 367.5,255C 374.959,243.055 382.959,231.555 391.5,220.5 Z"/></g>
<g><path style="opacity:0.933" fill="#1575e5" d="M 105.5,206.5 C 105.5,223.833 105.5,241.167 105.5,258.5C 104.839,259.718 104.172,261.051 103.5,262.5C 100.167,260.5 96.8333,258.5 93.5,256.5C 92.8302,254.709 92.1635,253.042 91.5,251.5C 91.5,237.167 91.5,222.833 91.5,208.5C 92.3195,205.695 92.8195,202.695 93,199.5C 96.9515,202.226 101.118,204.559 105.5,206.5 Z"/></g>
<g><path style="opacity:0.975" fill="#187ee8" d="M 176.5,248.5 C 170.201,244.012 163.534,240.012 156.5,236.5C 165.671,226.862 176.337,225.029 188.5,231C 190.007,231.837 190.507,233.004 190,234.5C 185.997,239.669 181.497,244.336 176.5,248.5 Z"/></g>
<g><path style="opacity:0.949" fill="#1c8bec" d="M 269.5,239.5 C 279.833,239.5 290.167,239.5 300.5,239.5C 316.633,249.404 332.966,259.071 349.5,268.5C 349.331,273.181 348.998,277.848 348.5,282.5C 347.849,283.091 347.182,283.757 346.5,284.5C 339.704,280.866 333.038,277.033 326.5,273C 327.737,272.768 328.737,272.268 329.5,271.5C 336.522,268.909 337.188,265.076 331.5,260C 319.171,259.5 306.838,259.333 294.5,259.5C 296.292,258.691 298.292,258.191 300.5,258C 290.103,251.807 279.77,245.641 269.5,239.5 Z"/></g>
<g><path style="opacity:0.97" fill="#1d8fee" d="M 361.5,240.5 C 358.162,245.349 354.996,250.349 352,255.5C 351.386,260.015 350.552,264.348 349.5,268.5C 332.966,259.071 316.633,249.404 300.5,239.5C 315.504,239.667 330.504,239.5 345.5,239C 348.821,237.188 350.155,234.355 349.5,230.5C 349.435,230.062 349.601,229.728 350,229.5C 352.167,230.333 353.667,231.833 354.5,234C 358.053,235.058 360.386,237.225 361.5,240.5 Z"/></g>
<g><path style="opacity:0.953" fill="#1778e7" d="M 156.5,236.5 C 163.534,240.012 170.201,244.012 176.5,248.5C 175.749,249.573 174.749,249.74 173.5,249C 169.6,245.044 164.933,243.377 159.5,244C 155.908,246.971 155.575,250.304 158.5,254C 164.374,257.768 170.374,261.268 176.5,264.5C 177.938,264.281 179.271,263.781 180.5,263C 185.983,256.35 191.983,250.183 198.5,244.5C 202.337,263.351 194.671,274.351 175.5,277.5C 156.067,274.228 148.234,262.895 152,243.5C 153.026,240.761 154.526,238.428 156.5,236.5 Z"/></g>
<g><path style="opacity:0.976" fill="#1473e4" d="M 118.5,242.5 C 124.67,246.419 131.003,250.086 137.5,253.5C 144.419,284.301 163.086,294.968 193.5,285.5C 209.939,295.559 226.605,305.392 243.5,315C 247.025,315.179 250.359,315.679 253.5,316.5C 247.158,316.334 240.825,316.5 234.5,317C 229.702,320.307 229.369,323.974 233.5,328C 245.399,329.459 257.399,329.959 269.5,329.5C 279.77,335.641 290.103,341.807 300.5,348C 284.837,348.5 269.17,348.667 253.5,348.5C 241.143,341.903 228.977,334.903 217,327.5C 216.802,329.382 216.302,331.048 215.5,332.5C 216.081,325.939 215.248,319.605 213,313.5C 210.736,310.567 207.902,308.4 204.5,307C 195.84,306.5 187.173,306.334 178.5,306.5C 158.836,294.332 138.836,282.665 118.5,271.5C 118.5,261.833 118.5,252.167 118.5,242.5 Z"/></g>
<g><path style="opacity:0.965" fill="#187fe8" d="M 208.5,233.5 C 222.806,241.655 237.139,249.821 251.5,258C 249.292,258.191 247.292,258.691 245.5,259.5C 241.033,259.133 236.7,259.633 232.5,261C 229.731,264.607 230.064,267.94 233.5,271C 247.496,271.5 261.496,271.667 275.5,271.5C 300.331,286.136 325.331,300.636 350.5,315C 347.964,315.186 345.631,315.686 343.5,316.5C 327.167,316.5 310.833,316.5 294.5,316.5C 268.06,300.774 241.393,285.274 214.5,270C 212.365,269.124 211.031,267.624 210.5,265.5C 213.826,254.572 212.826,244.072 207.5,234C 207.728,233.601 208.062,233.435 208.5,233.5 Z"/></g>
<g><path style="opacity:0.792" fill="#126ce2" d="M 91.5,251.5 C 92.1635,253.042 92.8302,254.709 93.5,256.5C 96.8333,258.5 100.167,260.5 103.5,262.5C 104.172,261.051 104.839,259.718 105.5,258.5C 105.5,274.5 105.5,290.5 105.5,306.5C 100.833,306.5 96.1667,306.5 91.5,306.5C 91.5,288.167 91.5,269.833 91.5,251.5 Z"/></g>
<g><path style="opacity:0.91" fill="#1f94ef" d="M 430.5,309.5 C 429.835,307.631 429.169,305.631 428.5,303.5C 425.167,301.5 421.833,299.5 418.5,297.5C 417.83,295.709 417.163,294.042 416.5,292.5C 416.334,282.494 416.5,272.494 417,262.5C 420.946,256.221 425.279,250.221 430,244.5C 430.5,266.164 430.667,287.831 430.5,309.5 Z"/></g>
<g><path style="opacity:0.994" fill="#1679e6" d="M 210.5,265.5 C 211.031,267.624 212.365,269.124 214.5,270C 241.393,285.274 268.06,300.774 294.5,316.5C 280.833,316.5 267.167,316.5 253.5,316.5C 250.359,315.679 247.025,315.179 243.5,315C 226.605,305.392 209.939,295.559 193.5,285.5C 200.578,280.084 206.245,273.417 210.5,265.5 Z"/></g>
<g><path style="opacity:0.968" fill="#1a87eb" d="M 275.5,271.5 C 293.5,271.5 311.5,271.5 329.5,271.5C 328.737,272.268 327.737,272.768 326.5,273C 333.038,277.033 339.704,280.866 346.5,284.5C 347.182,283.757 347.849,283.091 348.5,282.5C 347.227,289.452 346.727,296.452 347,303.5C 348.085,306.25 350.085,307.917 353,308.5C 368.68,301.744 384.18,294.577 399.5,287C 400.64,285.027 401.973,283.193 403.5,281.5C 404.5,304.49 404.833,327.49 404.5,350.5C 403.776,348.782 403.109,346.948 402.5,345C 393.273,339.555 383.94,334.389 374.5,329.5C 381.061,325.322 381.061,321.155 374.5,317C 364.172,316.5 353.839,316.334 343.5,316.5C 345.631,315.686 347.964,315.186 350.5,315C 325.331,300.636 300.331,286.136 275.5,271.5 Z"/></g>
<g><path style="opacity:0.926" fill="#1d8ded" d="M 362.5,267.5 C 369.285,271.779 375.952,276.279 382.5,281C 375.667,284.781 368.667,288.281 361.5,291.5C 361.167,289.833 360.833,288.167 360.5,286.5C 361.25,280.168 361.917,273.835 362.5,267.5 Z"/></g>
<g><path style="opacity:0.923" fill="#126de2" d="M 118.5,271.5 C 138.836,282.665 158.836,294.332 178.5,306.5C 158.5,306.5 138.5,306.5 118.5,306.5C 118.5,294.833 118.5,283.167 118.5,271.5 Z"/></g>
<g><path style="opacity:0.98" fill="#1169e1" d="M 202.5,365.5 C 185.167,355.5 167.833,345.5 150.5,335.5C 150.5,329.833 150.5,324.167 150.5,318.5C 167.503,318.333 184.503,318.5 201.5,319C 202.491,334.422 202.824,349.922 202.5,365.5 Z"/></g>
<g><path style="opacity:0.997" fill="#0c5adc" d="M 79.5,371.5 C 78.8354,369.631 78.1687,367.631 77.5,365.5C 60.9619,355.8 44.2953,346.3 27.5,337C 26.8563,332.066 26.1897,327.233 25.5,322.5C 25.5106,320.983 26.1772,319.816 27.5,319C 44.8301,318.5 62.1635,318.333 79.5,318.5C 79.5,336.167 79.5,353.833 79.5,371.5 Z"/></g>
<g><path style="opacity:0.979" fill="#0d5fde" d="M 111.5,318.5 C 106.684,319.326 101.684,319.826 96.5,320C 110.194,327.845 123.861,335.678 137.5,343.5C 137.667,354.172 137.5,364.839 137,375.5C 130.929,369.551 124.762,363.718 118.5,358C 117.128,357.598 115.795,357.098 114.5,356.5C 106.56,362.27 99.0602,368.603 92,375.5C 91.5001,356.503 91.3334,337.503 91.5,318.5C 98.1667,318.5 104.833,318.5 111.5,318.5 Z"/></g>
<g><path style="opacity:0.99" fill="#0f65e0" d="M 111.5,318.5 C 120.167,318.5 128.833,318.5 137.5,318.5C 137.5,326.833 137.5,335.167 137.5,343.5C 123.861,335.678 110.194,327.845 96.5,320C 101.684,319.826 106.684,319.326 111.5,318.5 Z"/></g>
<g><path style="opacity:0.919" fill="#1b88eb" d="M 416.5,292.5 C 417.163,294.042 417.83,295.709 418.5,297.5C 421.833,299.5 425.167,301.5 428.5,303.5C 429.169,305.631 429.835,307.631 430.5,309.5C 430.5,327.5 430.5,345.5 430.5,363.5C 429.751,362.469 429.085,361.302 428.5,360C 425.006,358.421 421.673,356.587 418.5,354.5C 417.831,352.369 417.165,350.369 416.5,348.5C 416.5,329.833 416.5,311.167 416.5,292.5 Z"/></g>
<g><path style="opacity:0.992" fill="#177de7" d="M 269.5,329.5 C 304.5,329.5 339.5,329.5 374.5,329.5C 383.94,334.389 393.273,339.555 402.5,345C 403.109,346.948 403.776,348.782 404.5,350.5C 404.5,364.167 404.5,377.833 404.5,391.5C 403.795,388.772 403.128,385.939 402.5,383C 390.271,376.059 378.271,368.892 366.5,361.5C 371.535,362.498 375.702,361.165 379,357.5C 379.755,354.503 378.922,352.003 376.5,350C 335.501,349.5 294.501,349.333 253.5,349.5C 253.5,349.167 253.5,348.833 253.5,348.5C 269.17,348.667 284.837,348.5 300.5,348C 290.103,341.807 279.77,335.641 269.5,329.5 Z"/></g>
<g><path style="opacity:0.996" fill="#0f65df" d="M 150.5,335.5 C 167.833,345.5 185.167,355.5 202.5,365.5C 202.5,370.5 202.5,375.5 202.5,380.5C 185.167,370.833 167.833,361.167 150.5,351.5C 150.5,346.167 150.5,340.833 150.5,335.5 Z"/></g>
<g><path style="opacity:0.988" fill="#126de2" d="M 253.5,348.5 C 253.5,348.833 253.5,349.167 253.5,349.5C 246.825,349.334 240.158,349.5 233.5,350C 229.908,352.971 229.575,356.304 232.5,360C 244.065,361.457 255.732,361.957 267.5,361.5C 272.236,361.955 276.903,363.122 281.5,365C 307.194,379.845 332.861,394.678 358.5,409.5C 358.5,414.167 358.5,418.833 358.5,423.5C 357.674,427.982 357.174,432.649 357,437.5C 310.582,410.374 264.082,383.374 217.5,356.5C 216.828,357.949 216.161,359.282 215.5,360.5C 215.5,351.167 215.5,341.833 215.5,332.5C 216.302,331.048 216.802,329.382 217,327.5C 228.977,334.903 241.143,341.903 253.5,348.5 Z"/></g>
<g><path style="opacity:0.996" fill="#0e60de" d="M 150.5,351.5 C 167.833,361.167 185.167,370.833 202.5,380.5C 202.5,390.167 202.5,399.833 202.5,409.5C 185.167,399.5 167.833,389.5 150.5,379.5C 150.5,370.167 150.5,360.833 150.5,351.5 Z"/></g>
<g><path style="opacity:0.979" fill="#1068e1" d="M 358.5,423.5 C 358.5,431.833 358.5,440.167 358.5,448.5C 346.167,448.5 333.833,448.5 321.5,448.5C 328.655,447.671 335.989,447.171 343.5,447C 300.942,422.224 258.275,397.724 215.5,373.5C 215.5,369.167 215.5,364.833 215.5,360.5C 216.161,359.282 216.828,357.949 217.5,356.5C 264.082,383.374 310.582,410.374 357,437.5C 357.174,432.649 357.674,427.982 358.5,423.5 Z"/></g>
<g><path style="opacity:0.976" fill="#1473e4" d="M 267.5,361.5 C 286.833,361.5 306.167,361.5 325.5,361.5C 342.997,372.137 360.663,382.637 378.5,393C 377.263,393.232 376.263,393.732 375.5,394.5C 365.792,394.872 360.126,399.872 358.5,409.5C 332.861,394.678 307.194,379.845 281.5,365C 276.903,363.122 272.236,361.955 267.5,361.5 Z"/></g>
<g><path style="opacity:0.979" fill="#1678e6" d="M 325.5,361.5 C 339.167,361.5 352.833,361.5 366.5,361.5C 378.271,368.892 390.271,376.059 402.5,383C 403.128,385.939 403.795,388.772 404.5,391.5C 404.5,392.5 404.5,393.5 404.5,394.5C 394.833,394.5 385.167,394.5 375.5,394.5C 376.263,393.732 377.263,393.232 378.5,393C 360.663,382.637 342.997,372.137 325.5,361.5 Z"/></g>
<g><path style="opacity:1" fill="#084ed8" d="M 25.5,354.5 C 26.3213,357.641 26.8213,360.975 27,364.5C 85.1468,398.822 143.647,432.489 202.5,465.5C 202.5,475.5 202.5,485.5 202.5,495.5C 200.167,495.5 197.833,495.5 195.5,495.5C 139.243,463.096 83.0764,430.429 27,397.5C 26.8213,393.975 26.3213,390.641 25.5,387.5C 25.5,376.5 25.5,365.5 25.5,354.5 Z"/></g>
<g><path style="opacity:0.936" fill="#187fe8" d="M 416.5,348.5 C 417.165,350.369 417.831,352.369 418.5,354.5C 421.673,356.587 425.006,358.421 428.5,360C 429.085,361.302 429.751,362.469 430.5,363.5C 430.5,375.167 430.5,386.833 430.5,398.5C 425.833,396.167 421.167,393.833 416.5,391.5C 416.5,377.167 416.5,362.833 416.5,348.5 Z"/></g>
<g><path style="opacity:0.99" fill="#0b59dc" d="M 150.5,379.5 C 167.833,389.5 185.167,399.5 202.5,409.5C 202.5,418.833 202.5,428.167 202.5,437.5C 169.833,418.833 137.167,400.167 104.5,381.5C 107.499,377.668 110.999,374.335 115,371.5C 124.088,380.594 133.755,388.928 144,396.5C 146.915,395.917 148.915,394.25 150,391.5C 150.499,387.514 150.666,383.514 150.5,379.5 Z"/></g>
<g><path style="opacity:0.995" fill="#0f65df" d="M 215.5,373.5 C 258.275,397.724 300.942,422.224 343.5,447C 335.989,447.171 328.655,447.671 321.5,448.5C 320.5,448.5 319.5,448.5 318.5,448.5C 284.366,428.263 250.033,408.263 215.5,388.5C 215.5,383.5 215.5,378.5 215.5,373.5 Z"/></g>
<g><path style="opacity:0.998" fill="#0a54da" d="M 25.5,322.5 C 26.1897,327.233 26.8563,332.066 27.5,337C 44.2953,346.3 60.9619,355.8 77.5,365.5C 78.1687,367.631 78.8354,369.631 79.5,371.5C 79.3337,378.508 79.5004,385.508 80,392.5C 82.9718,396.909 86.4718,397.409 90.5,394C 94.74,389.255 99.4067,385.088 104.5,381.5C 137.167,400.167 169.833,418.833 202.5,437.5C 202.5,446.833 202.5,456.167 202.5,465.5C 143.647,432.489 85.1468,398.822 27,364.5C 26.8213,360.975 26.3213,357.641 25.5,354.5C 25.5,343.833 25.5,333.167 25.5,322.5 Z"/></g>
<g><path style="opacity:0.981" fill="#0e60de" d="M 215.5,388.5 C 250.033,408.263 284.366,428.263 318.5,448.5C 305.5,448.5 292.5,448.5 279.5,448.5C 275.688,447.676 271.688,447.176 267.5,447C 250.274,436.89 232.941,427.056 215.5,417.5C 215.5,407.833 215.5,398.167 215.5,388.5 Z"/></g>
<g><path style="opacity:0.995" fill="#0547d5" d="M 25.5,387.5 C 26.3213,390.641 26.8213,393.975 27,397.5C 83.0764,430.429 139.243,463.096 195.5,495.5C 178.833,495.5 162.167,495.5 145.5,495.5C 124.833,483.167 104.167,470.833 83.5,458.5C 87.7439,455.69 88.4105,452.19 85.5,448C 77.6112,446.565 69.6112,446.065 61.5,446.5C 51.0597,440.108 40.393,433.941 29.5,428C 27.4028,426.23 26.0694,424.063 25.5,421.5C 25.5,410.167 25.5,398.833 25.5,387.5 Z"/></g>
<g><path style="opacity:0.915" fill="#1471e4" d="M 373.5,406.5 C 381.196,406.169 388.862,406.503 396.5,407.5C 388.156,417.54 379.823,427.54 371.5,437.5C 370.335,428.184 370.168,418.851 371,409.5C 371.698,408.309 372.531,407.309 373.5,406.5 Z"/></g>
<g><path style="opacity:0.972" fill="#1574e5" d="M 416.5,391.5 C 421.167,393.833 425.833,396.167 430.5,398.5C 430.818,415.577 430.485,432.577 429.5,449.5C 417.68,443.87 406.18,437.537 395,430.5C 394.617,431.056 394.117,431.389 393.5,431.5C 400.049,422.106 407.216,413.106 415,404.5C 416.367,400.3 416.867,395.967 416.5,391.5 Z"/></g>
<g><path style="opacity:0.94" fill="#0c5adc" d="M 215.5,417.5 C 232.941,427.056 250.274,436.89 267.5,447C 271.688,447.176 275.688,447.676 279.5,448.5C 258.167,448.5 236.833,448.5 215.5,448.5C 215.5,438.167 215.5,427.833 215.5,417.5 Z"/></g>
<g><path style="opacity:0.976" fill="#0341d3" d="M 25.5,421.5 C 26.0694,424.063 27.4028,426.23 29.5,428C 40.393,433.941 51.0597,440.108 61.5,446.5C 54.7163,446.08 48.0496,446.58 41.5,448C 38.6572,451.619 38.9905,454.952 42.5,458C 56.1626,458.5 69.8293,458.667 83.5,458.5C 104.167,470.833 124.833,483.167 145.5,495.5C 129.167,495.5 112.833,495.5 96.5,495.5C 90.0657,491.108 83.399,486.941 76.5,483C 78.0581,482.79 79.3915,482.29 80.5,481.5C 85.7342,481.377 87.9008,478.71 87,473.5C 86.5,471.667 85.3333,470.5 83.5,470C 70.8377,469.5 58.1711,469.333 45.5,469.5C 46.9516,468.698 48.6183,468.198 50.5,468C 42.422,463.879 34.5886,459.379 27,454.5C 26.79,456.058 26.29,457.391 25.5,458.5C 25.5,446.167 25.5,433.833 25.5,421.5 Z"/></g>
<g><path style="opacity:0.987" fill="#126de2" d="M 429.5,449.5 C 427.927,459.401 422.594,466.401 413.5,470.5C 403.561,463.856 393.228,457.689 382.5,452C 380.561,451.092 379.561,449.592 379.5,447.5C 383.823,441.845 388.49,436.512 393.5,431.5C 394.117,431.389 394.617,431.056 395,430.5C 406.18,437.537 417.68,443.87 429.5,449.5 Z"/></g>
<g><path style="opacity:0.974" fill="#1067e0" d="M 379.5,447.5 C 379.561,449.592 380.561,451.092 382.5,452C 393.228,457.689 403.561,463.856 413.5,470.5C 411.266,472.446 408.599,473.613 405.5,474C 394.172,474.5 382.838,474.667 371.5,474.5C 360.356,472.599 350.356,467.932 341.5,460.5C 350.506,460.666 359.506,460.5 368.5,460C 372.537,456.042 376.204,451.876 379.5,447.5 Z"/></g>
<g><path style="opacity:0.936" fill="#013bd1" d="M 45.5,469.5 C 40.1755,470.33 38.3422,473.33 40,478.5C 40.8333,479.333 41.6667,480.167 42.5,481C 55.1623,481.5 67.8289,481.667 80.5,481.5C 79.3915,482.29 78.0581,482.79 76.5,483C 83.399,486.941 90.0657,491.108 96.5,495.5C 73.1643,495.667 49.831,495.5 26.5,495C 25.5115,482.914 25.1782,470.747 25.5,458.5C 26.29,457.391 26.79,456.058 27,454.5C 34.5886,459.379 42.422,463.879 50.5,468C 48.6183,468.198 46.9516,468.698 45.5,469.5 Z"/></g>
<g><path style="opacity:0.915" fill="#0e60de" d="M 302.5,460.5 C 315.5,460.5 328.5,460.5 341.5,460.5C 350.356,467.932 360.356,472.599 371.5,474.5C 349.833,474.5 328.167,474.5 306.5,474.5C 308.292,473.691 310.292,473.191 312.5,473C 306.167,469.333 299.833,465.667 293.5,462C 296.695,461.819 299.695,461.319 302.5,460.5 Z"/></g>
<g><path style="opacity:0.964" fill="#0b57db" d="M 302.5,460.5 C 299.695,461.319 296.695,461.819 293.5,462C 299.833,465.667 306.167,469.333 312.5,473C 310.292,473.191 308.292,473.691 306.5,474.5C 276.167,474.5 245.833,474.5 215.5,474.5C 215.5,469.833 215.5,465.167 215.5,460.5C 244.5,460.5 273.5,460.5 302.5,460.5 Z"/></g>
</svg>
