<?xml version="1.0" encoding="UTF-8"?>
<!DOCTYPE svg PUBLIC "-//W3C//DTD SVG 1.1//EN" "http://www.w3.org/Graphics/SVG/1.1/DTD/svg11.dtd">
<svg xmlns="http://www.w3.org/2000/svg" version="1.1" width="24px" height="24px" style="shape-rendering:geometricPrecision; text-rendering:geometricPrecision; image-rendering:optimizeQuality; fill-rule:evenodd; clip-rule:evenodd" xmlns:xlink="http://www.w3.org/1999/xlink">
<g><path style="opacity:0.964" fill="#8b4937" d="M 17.5,5.5 C 16.8999,6.90018 15.8999,7.90018 14.5,8.5C 14.5386,7.24382 14.0386,6.24382 13,5.5C 11.2151,6.24008 9.38174,6.90674 7.5,7.5C 6.81815,6.75731 6.15149,6.09065 5.5,5.5C 6.24183,2.44995 8.24183,0.783281 11.5,0.5C 14.7205,0.78025 16.7205,2.44692 17.5,5.5 Z"/></g>
<g><path style="opacity:0.814" fill="#fed15b" d="M 5.5,5.5 C 5.5,6.5 5.5,7.5 5.5,8.5C 2.22441,9.12155 0.891077,11.1216 1.5,14.5C 0.833333,14.5 0.166667,14.5 -0.5,14.5C -0.5,12.1667 -0.5,9.83333 -0.5,7.5C 1.14166,5.91917 3.14166,5.2525 5.5,5.5 Z"/></g>
<g><path style="opacity:1" fill="#e39f79" d="M 5.5,5.5 C 6.15149,6.09065 6.81815,6.75731 7.5,7.5C 9.38174,6.90674 11.2151,6.24008 13,5.5C 14.0386,6.24382 14.5386,7.24382 14.5,8.5C 14.5,8.83333 14.5,9.16667 14.5,9.5C 12.2075,9.75642 10.0408,9.42308 8,8.5C 7.53566,9.09442 7.36899,9.76109 7.5,10.5C 6.16667,10.5 5.5,9.83333 5.5,8.5C 5.5,7.5 5.5,6.5 5.5,5.5 Z"/></g>
<g><path style="opacity:0.998" fill="#fdc65a" d="M 17.5,5.5 C 19.6208,5.32526 21.6208,5.65859 23.5,6.5C 23.5,7.83333 23.5,9.16667 23.5,10.5C 21.5648,9.85048 19.5648,9.51715 17.5,9.5C 17.5,8.16667 17.5,6.83333 17.5,5.5 Z"/></g>
<g><path style="opacity:0.96" fill="#ebac87" d="M 14.5,9.5 C 13.3192,11.0672 11.6526,11.9005 9.5,12C 10.3279,12.9147 11.3279,13.5814 12.5,14C 11.552,14.4828 10.552,14.6495 9.5,14.5C 8.83333,14.5 8.16667,14.5 7.5,14.5C 7.5,13.1667 7.5,11.8333 7.5,10.5C 7.36899,9.76109 7.53566,9.09442 8,8.5C 10.0408,9.42308 12.2075,9.75642 14.5,9.5 Z"/></g>
<g><path style="opacity:0.996" fill="#eba982" d="M 5.5,8.5 C 5.5,9.83333 6.16667,10.5 7.5,10.5C 7.5,11.8333 7.5,13.1667 7.5,14.5C 6.50838,14.3284 5.84171,14.6618 5.5,15.5C 4.73209,16.2625 4.23209,17.2625 4,18.5C 3.14825,17.4293 2.31491,16.4293 1.5,15.5C 1.5,15.1667 1.5,14.8333 1.5,14.5C 0.891077,11.1216 2.22441,9.12155 5.5,8.5 Z"/></g>
<g><path style="opacity:0.967" fill="#e8a682" d="M 17.5,9.5 C 19.5648,9.51715 21.5648,9.85048 23.5,10.5C 23.5,11.1667 23.5,11.8333 23.5,12.5C 22.5987,13.2905 21.9321,14.2905 21.5,15.5C 20.0357,16.4054 18.7024,16.4054 17.5,15.5C 17.1667,14.8333 16.8333,14.1667 16.5,13.5C 16.4326,12.0413 16.7659,10.7079 17.5,9.5 Z"/></g>
<g><path style="opacity:0.816" fill="#e39c71" d="M 17.5,5.5 C 17.5,6.83333 17.5,8.16667 17.5,9.5C 16.7659,10.7079 16.4326,12.0413 16.5,13.5C 15.2905,13.9321 14.2905,14.5987 13.5,15.5C 12.5655,16.5676 12.2322,17.901 12.5,19.5C 11.0221,18.5525 10.0221,17.2191 9.5,15.5C 9.5,15.1667 9.5,14.8333 9.5,14.5C 10.552,14.6495 11.552,14.4828 12.5,14C 11.3279,13.5814 10.3279,12.9147 9.5,12C 11.6526,11.9005 13.3192,11.0672 14.5,9.5C 14.5,9.16667 14.5,8.83333 14.5,8.5C 15.8999,7.90018 16.8999,6.90018 17.5,5.5 Z"/></g>
<g><path style="opacity:0.957" fill="#ec2d59" d="M 1.5,15.5 C 2.31491,16.4293 3.14825,17.4293 4,18.5C 4.23209,17.2625 4.73209,16.2625 5.5,15.5C 6.16667,15.8333 6.83333,16.1667 7.5,16.5C 6.83333,17.8333 6.16667,19.1667 5.5,20.5C 3.5,20.5 1.5,20.5 -0.5,20.5C -0.5,19.1667 -0.5,17.8333 -0.5,16.5C 0.491622,16.6716 1.15829,16.3382 1.5,15.5 Z"/></g>
<g><path style="opacity:0.451" fill="#4dc8d9" d="M 17.5,15.5 C 18.7024,16.4054 20.0357,16.4054 21.5,15.5C 21.8417,16.3382 22.5084,16.6716 23.5,16.5C 23.5,17.8333 23.5,19.1667 23.5,20.5C 21.5,20.5 19.5,20.5 17.5,20.5C 16.8333,19.1667 16.1667,17.8333 15.5,16.5C 16.1667,16.1667 16.8333,15.8333 17.5,15.5 Z"/></g>
<g><path style="opacity:0.867" fill="#5e536d" d="M 13.5,15.5 C 14.1667,15.8333 14.8333,16.1667 15.5,16.5C 16.1667,17.8333 16.8333,19.1667 17.5,20.5C 17.6716,21.4916 17.3382,22.1583 16.5,22.5C 14.7809,21.9779 13.4475,20.9779 12.5,19.5C 12.2322,17.901 12.5655,16.5676 13.5,15.5 Z"/></g>
<g><path style="opacity:0.125" fill="#675971" d="M 9.5,15.5 C 10.0221,17.2191 11.0221,18.5525 12.5,19.5C 13.4475,20.9779 14.7809,21.9779 16.5,22.5C 12.351,23.0803 8.68431,22.4136 5.5,20.5C 6.16667,19.1667 6.83333,17.8333 7.5,16.5C 8.16667,16.1667 8.83333,15.8333 9.5,15.5 Z"/></g>
</svg>
