<?xml version="1.0" encoding="UTF-8"?>
<!DOCTYPE svg PUBLIC "-//W3C//DTD SVG 1.1//EN" "http://www.w3.org/Graphics/SVG/1.1/DTD/svg11.dtd">
<svg xmlns="http://www.w3.org/2000/svg" version="1.1" width="24px" height="24px" style="shape-rendering:geometricPrecision; text-rendering:geometricPrecision; image-rendering:optimizeQuality; fill-rule:evenodd; clip-rule:evenodd" xmlns:xlink="http://www.w3.org/1999/xlink">
<g><path style="opacity:1" fill="#f9699d" d="M 0.5,-0.5 C 4.16667,-0.5 7.83333,-0.5 11.5,-0.5C 11.5,1.16667 11.5,2.83333 11.5,4.5C 11.5,8.16667 11.5,11.8333 11.5,15.5C 10.8333,15.5 10.1667,15.5 9.5,15.5C 7.4093,11.5605 5.4093,11.5605 3.5,15.5C 1.89001,12.7967 0.890007,9.79669 0.5,6.5C 0.5,4.16667 0.5,1.83333 0.5,-0.5 Z"/></g>
<g><path style="opacity:0.848" fill="#93e4fc" d="M 11.5,-0.5 C 12.5,-0.5 13.5,-0.5 14.5,-0.5C 17.1057,0.439005 19.1057,2.10567 20.5,4.5C 17.5,4.5 14.5,4.5 11.5,4.5C 11.5,2.83333 11.5,1.16667 11.5,-0.5 Z"/></g>
<g><path style="opacity:1" fill="#fdb12b" d="M 3.5,1.5 C 5.60395,1.2011 7.60395,1.53443 9.5,2.5C 8.5,2.83333 7.5,3.16667 6.5,3.5C 4.97041,3.36015 3.97041,2.69348 3.5,1.5 Z"/></g>
<g><path style="opacity:0.958" fill="#fad42d" d="M 11.5,4.5 C 14.5,4.5 17.5,4.5 20.5,4.5C 21.8333,4.5 22.5,5.16667 22.5,6.5C 21.1667,9.83333 21.1667,13.1667 22.5,16.5C 23.0838,19.285 22.0838,20.9517 19.5,21.5C 18.4166,16.5896 16.4166,16.2563 13.5,20.5C 11.744,19.4479 11.0773,17.7812 11.5,15.5C 11.5,11.8333 11.5,8.16667 11.5,4.5 Z"/></g>
<g><path style="opacity:1" fill="#bf7da1" d="M 13.5,6.5 C 15.604,6.2011 17.604,6.53443 19.5,7.5C 18.5,7.83333 17.5,8.16667 16.5,8.5C 14.9704,8.36015 13.9704,7.69348 13.5,6.5 Z"/></g>
<g><path style="opacity:0.973" fill="#a7e6ea" d="M 22.5,6.5 C 22.5,7.16667 22.8333,7.5 23.5,7.5C 23.5,9.83333 23.5,12.1667 23.5,14.5C 22.6618,14.8417 22.3284,15.5084 22.5,16.5C 21.1667,13.1667 21.1667,9.83333 22.5,6.5 Z"/></g>
<g><path style="opacity:0.777" fill="#99ddf3" d="M 0.5,6.5 C 0.890007,9.79669 1.89001,12.7967 3.5,15.5C 4.07167,18.2436 5.73834,19.0769 8.5,18C 9.25244,17.3292 9.58577,16.4959 9.5,15.5C 10.1667,15.5 10.8333,15.5 11.5,15.5C 11.0773,17.7812 11.744,19.4479 13.5,20.5C 13.5569,21.609 13.8902,22.609 14.5,23.5C 12.5,23.5 10.5,23.5 8.5,23.5C 4.16667,21.8333 1.16667,18.8333 -0.5,14.5C -0.5,12.1667 -0.5,9.83333 -0.5,7.5C 0.166667,7.5 0.5,7.16667 0.5,6.5 Z"/></g>
<g><path style="opacity:1" fill="#3ccc9b" d="M 9.5,15.5 C 9.58577,16.4959 9.25244,17.3292 8.5,18C 5.73834,19.0769 4.07167,18.2436 3.5,15.5C 5.4093,11.5605 7.4093,11.5605 9.5,15.5 Z"/></g>
<g><path style="opacity:0.635" fill="#af73d0" d="M 19.5,21.5 C 19.5,22.1667 19.5,22.8333 19.5,23.5C 17.8333,23.5 16.1667,23.5 14.5,23.5C 13.8902,22.609 13.5569,21.609 13.5,20.5C 16.4166,16.2563 18.4166,16.5896 19.5,21.5 Z"/></g>
</svg>
