<?xml version="1.0" encoding="UTF-8"?>
<!DOCTYPE svg PUBLIC "-//W3C//DTD SVG 1.1//EN" "http://www.w3.org/Graphics/SVG/1.1/DTD/svg11.dtd">
<svg xmlns="http://www.w3.org/2000/svg" version="1.1" width="512px" height="512px" style="shape-rendering:geometricPrecision; text-rendering:geometricPrecision; image-rendering:optimizeQuality; fill-rule:evenodd; clip-rule:evenodd" xmlns:xlink="http://www.w3.org/1999/xlink">
<g><path style="opacity:0.996" fill="#4297ce" d="M 29.5,-0.5 C 136.5,-0.5 243.5,-0.5 350.5,-0.5C 337.202,13.2985 323.702,26.9652 310,40.5C 309.829,47.6787 309.329,54.6787 308.5,61.5C 305.686,62.1647 302.686,62.498 299.5,62.5C 296.061,62.4464 292.894,61.7797 290,60.5C 263.5,87 237,113.5 210.5,140C 216.825,140.5 223.158,140.666 229.5,140.5C 229.5,146.833 229.5,153.167 229.5,159.5C 217.082,160.134 204.916,159.467 193,157.5C 157.5,193 122,228.5 86.5,264C 69.6616,264.168 52.995,264.668 36.5,265.5C 17.6275,265.275 5.29421,256.275 -0.5,238.5C -0.5,167.833 -0.5,97.1667 -0.5,26.5C 4.45749,11.8749 14.4575,2.87488 29.5,-0.5 Z"/></g>
<g><path style="opacity:1" fill="#3d8ac6" d="M 350.5,-0.5 C 364.833,-0.5 379.167,-0.5 393.5,-0.5C 411.975,3.81488 422.142,15.4815 424,34.5C 424.5,52.4969 424.667,70.4969 424.5,88.5C 423.662,88.8417 423.328,89.5084 423.5,90.5C 423.5,115.833 423.5,141.167 423.5,166.5C 423.667,190.169 423.5,213.836 423,237.5C 421.981,241.397 420.481,245.064 418.5,248.5C 417.833,248.5 417.5,248.833 417.5,249.5C 386.701,219.202 356.035,188.702 325.5,158C 305.689,144.137 287.189,145.637 270,162.5C 259.068,177.902 258.735,193.569 269,209.5C 286.41,227.739 303.244,246.405 319.5,265.5C 268.167,265.5 216.833,265.5 165.5,265.5C 122.5,265.5 79.5,265.5 36.5,265.5C 52.995,264.668 69.6616,264.168 86.5,264C 122,228.5 157.5,193 193,157.5C 204.916,159.467 217.082,160.134 229.5,159.5C 229.5,153.167 229.5,146.833 229.5,140.5C 223.158,140.666 216.825,140.5 210.5,140C 237,113.5 263.5,87 290,60.5C 292.894,61.7797 296.061,62.4464 299.5,62.5C 302.686,62.498 305.686,62.1647 308.5,61.5C 309.329,54.6787 309.829,47.6787 310,40.5C 323.702,26.9652 337.202,13.2985 350.5,-0.5 Z"/></g>
<g><path style="opacity:1" fill="#fbb430" d="M 105.5,61.5 C 96.5,61.5 87.5,61.5 78.5,61.5C 78.5,67.5 78.5,73.5 78.5,79.5C 87.5,79.5 96.5,79.5 105.5,79.5C 105.666,84.8437 105.499,90.1771 105,95.5C 103.526,100.974 100.026,104.474 94.5,106C 78.8333,106.667 63.1667,106.667 47.5,106C 41.5315,104.702 37.3648,101.202 35,95.5C 34.5006,90.1771 34.334,84.8437 34.5,79.5C 43.5,79.5 52.5,79.5 61.5,79.5C 61.5,73.5 61.5,67.5 61.5,61.5C 52.5,61.5 43.5,61.5 34.5,61.5C 34.3341,56.4889 34.5007,51.4889 35,46.5C 36.4056,41.4268 39.5723,37.9268 44.5,36C 61.1667,35.3333 77.8333,35.3333 94.5,36C 99.5732,37.4056 103.073,40.5723 105,45.5C 105.499,50.8229 105.666,56.1563 105.5,61.5 Z"/></g>
<g><path style="opacity:1" fill="#5bb2cf" d="M 255.5,35.5 C 261.5,35.5 267.5,35.5 273.5,35.5C 273.5,44.1667 273.5,52.8333 273.5,61.5C 267.5,61.5 261.5,61.5 255.5,61.5C 255.5,52.8333 255.5,44.1667 255.5,35.5 Z"/></g>
<g><path style="opacity:1" fill="#5cb3cf" d="M 308.5,61.5 C 302.833,61.5 297.167,61.5 291.5,61.5C 291.5,52.8333 291.5,44.1667 291.5,35.5C 297.167,35.5 302.833,35.5 308.5,35.5C 308.5,44.1667 308.5,52.8333 308.5,61.5 Z"/></g>
<g><path style="opacity:1" fill="#5bb1ce" d="M 326.5,35.5 C 332.5,35.5 338.5,35.5 344.5,35.5C 344.5,44.1667 344.5,52.8333 344.5,61.5C 338.5,61.5 332.5,61.5 326.5,61.5C 326.5,52.8333 326.5,44.1667 326.5,35.5 Z"/></g>
<g><path style="opacity:1" fill="#5bb2ce" d="M 361.5,35.5 C 367.5,35.5 373.5,35.5 379.5,35.5C 379.5,44.1667 379.5,52.8333 379.5,61.5C 373.5,61.5 367.5,61.5 361.5,61.5C 361.5,52.8333 361.5,44.1667 361.5,35.5 Z"/></g>
<g><path style="opacity:1" fill="#fc7b2e" d="M 34.5,61.5 C 43.5,61.5 52.5,61.5 61.5,61.5C 61.5,67.5 61.5,73.5 61.5,79.5C 52.5,79.5 43.5,79.5 34.5,79.5C 34.5,73.5 34.5,67.5 34.5,61.5 Z"/></g>
<g><path style="opacity:1" fill="#fd7c2e" d="M 105.5,61.5 C 105.5,67.5 105.5,73.5 105.5,79.5C 96.5,79.5 87.5,79.5 78.5,79.5C 78.5,73.5 78.5,67.5 78.5,61.5C 87.5,61.5 96.5,61.5 105.5,61.5 Z"/></g>
<g><path style="opacity:0.998" fill="#feb47e" d="M 424.5,88.5 C 447.133,111.3 469.633,134.3 492,157.5C 501.558,171.606 508.058,186.94 511.5,203.5C 511.5,276.833 511.5,350.167 511.5,423.5C 458.503,424.245 405.503,424.578 352.5,424.5C 325.229,385.368 320.729,343.701 339,299.5C 340.123,296.751 341.623,294.251 343.5,292C 342.944,291.617 342.611,291.117 342.5,290.5C 335.173,281.841 327.507,273.507 319.5,265.5C 303.244,246.405 286.41,227.739 269,209.5C 258.735,193.569 259.068,177.902 270,162.5C 287.189,145.637 305.689,144.137 325.5,158C 356.035,188.702 386.701,219.202 417.5,249.5C 413.715,253.629 413.548,257.963 417,262.5C 429.529,275.363 442.362,287.863 455.5,300C 464.492,300.672 468.325,296.506 467,287.5C 455.965,276.632 445.131,265.632 434.5,254.5C 446.37,251.657 456.204,245.657 464,236.5C 469.129,227.813 470.796,218.48 469,208.5C 462.629,190.538 455.796,172.871 448.5,155.5C 440.734,133.523 432.401,111.856 423.5,90.5C 423.328,89.5084 423.662,88.8417 424.5,88.5 Z"/></g>
<g><path style="opacity:1" fill="#79472e" d="M 423.5,90.5 C 432.401,111.856 440.734,133.523 448.5,155.5C 440.378,159.388 432.045,163.055 423.5,166.5C 423.5,141.167 423.5,115.833 423.5,90.5 Z"/></g>
<g><path style="opacity:1" fill="#5ab1cf" d="M 34.5,141.5 C 46.5,141.5 58.5,141.5 70.5,141.5C 70.5,147.5 70.5,153.5 70.5,159.5C 58.5,159.5 46.5,159.5 34.5,159.5C 34.5,153.5 34.5,147.5 34.5,141.5 Z"/></g>
<g><path style="opacity:1" fill="#5ab1cf" d="M 87.5,141.5 C 99.5,141.5 111.5,141.5 123.5,141.5C 123.5,147.5 123.5,153.5 123.5,159.5C 111.5,159.5 99.5,159.5 87.5,159.5C 87.5,153.5 87.5,147.5 87.5,141.5 Z"/></g>
<g><path style="opacity:1" fill="#5ab1cf" d="M 140.5,141.5 C 152.5,141.5 164.5,141.5 176.5,141.5C 176.5,147.5 176.5,153.5 176.5,159.5C 164.5,159.5 152.5,159.5 140.5,159.5C 140.5,153.5 140.5,147.5 140.5,141.5 Z"/></g>
<g><path style="opacity:1" fill="#5cb3cf" d="M 194.5,141.5 C 205.833,141.5 217.167,141.5 228.5,141.5C 228.5,147.167 228.5,152.833 228.5,158.5C 217.167,158.5 205.833,158.5 194.5,158.5C 194.5,152.833 194.5,147.167 194.5,141.5 Z"/></g>
<g><path style="opacity:1" fill="#dd4a3a" d="M 448.5,155.5 C 455.796,172.871 462.629,190.538 469,208.5C 470.796,218.48 469.129,227.813 464,236.5C 456.204,245.657 446.37,251.657 434.5,254.5C 431.997,252.167 429.331,250.001 426.5,248C 423.779,247.398 421.113,247.565 418.5,248.5C 420.481,245.064 421.981,241.397 423,237.5C 423.5,213.836 423.667,190.169 423.5,166.5C 432.045,163.055 440.378,159.388 448.5,155.5 Z"/></g>
<g><path style="opacity:1" fill="#5ab1cf" d="M 34.5,194.5 C 46.5,194.5 58.5,194.5 70.5,194.5C 70.5,200.5 70.5,206.5 70.5,212.5C 58.5,212.5 46.5,212.5 34.5,212.5C 34.5,206.5 34.5,200.5 34.5,194.5 Z"/></g>
<g><path style="opacity:1" fill="#5ab1ce" d="M 193.5,194.5 C 205.5,194.5 217.5,194.5 229.5,194.5C 229.5,200.5 229.5,206.5 229.5,212.5C 217.5,212.5 205.5,212.5 193.5,212.5C 193.5,206.5 193.5,200.5 193.5,194.5 Z"/></g>
<g><path style="opacity:1" fill="#f0a36e" d="M 434.5,254.5 C 445.131,265.632 455.965,276.632 467,287.5C 468.325,296.506 464.492,300.672 455.5,300C 442.362,287.863 429.529,275.363 417,262.5C 413.548,257.963 413.715,253.629 417.5,249.5C 417.5,248.833 417.833,248.5 418.5,248.5C 421.113,247.565 423.779,247.398 426.5,248C 429.331,250.001 431.997,252.167 434.5,254.5 Z"/></g>
<g><path style="opacity:1" fill="#78472e" d="M 36.5,265.5 C 79.5,265.5 122.5,265.5 165.5,265.5C 128.453,280.682 91.1199,295.349 53.5,309.5C 47.3203,295.123 41.6537,280.456 36.5,265.5 Z"/></g>
<g><path style="opacity:0.995" fill="#dd4a39" d="M 165.5,265.5 C 216.833,265.5 268.167,265.5 319.5,265.5C 327.507,273.507 335.173,281.841 342.5,290.5C 267.823,319.227 193.156,348.06 118.5,377C 96.8752,383.354 81.0419,376.52 71,356.5C 65.0579,340.837 59.2246,325.17 53.5,309.5C 91.1199,295.349 128.453,280.682 165.5,265.5 Z"/></g>
<g><path style="opacity:0.998" fill="#87b335" d="M 511.5,423.5 C 511.5,452.833 511.5,482.167 511.5,511.5C 458.5,511.5 405.5,511.5 352.5,511.5C 352.5,482.5 352.5,453.5 352.5,424.5C 405.503,424.578 458.503,424.245 511.5,423.5 Z"/></g>
<g><path style="opacity:1" fill="#699528" d="M 379.5,450.5 C 385.5,450.5 391.5,450.5 397.5,450.5C 397.5,456.5 397.5,462.5 397.5,468.5C 391.5,468.5 385.5,468.5 379.5,468.5C 379.5,462.5 379.5,456.5 379.5,450.5 Z"/></g>
</svg>
