<?xml version="1.0" encoding="UTF-8"?>
<!DOCTYPE svg PUBLIC "-//W3C//DTD SVG 1.1//EN" "http://www.w3.org/Graphics/SVG/1.1/DTD/svg11.dtd">
<svg xmlns="http://www.w3.org/2000/svg" version="1.1" width="512px" height="512px" style="shape-rendering:geometricPrecision; text-rendering:geometricPrecision; image-rendering:optimizeQuality; fill-rule:evenodd; clip-rule:evenodd" xmlns:xlink="http://www.w3.org/1999/xlink">
<g><path style="opacity:0.999" fill="#e93957" d="M 20.5,7.5 C 125.834,7.33334 231.167,7.5 336.5,8C 342.925,9.42688 347.092,13.2602 349,19.5C 349.667,51.8333 349.667,84.1667 349,116.5C 346.833,121.333 343.333,124.833 338.5,127C 231.833,127.667 125.167,127.667 18.5,127C 12.8356,124.668 9.3356,120.501 8,114.5C 7.33333,83.1667 7.33333,51.8333 8,20.5C 10.3531,14.3154 14.5198,9.98203 20.5,7.5 Z"/></g>
<g><path style="opacity:1" fill="#fefcfd" d="M 67.5,40.5 C 67.5,55.5 67.5,70.5 67.5,85.5C 68.5,85.5 69.5,85.5 70.5,85.5C 78.1189,90.1198 78.4522,95.2865 71.5,101C 63.1667,101.667 54.8333,101.667 46.5,101C 40.4024,94.1785 41.4024,88.6785 49.5,84.5C 50.8333,76.1667 50.8333,67.8333 49.5,59.5C 43.1132,57.2792 40.9465,52.9459 43,46.5C 47.1994,41.9657 51.6994,37.799 56.5,34C 62.0413,33.1008 65.708,35.2674 67.5,40.5 Z"/></g>
<g><path style="opacity:1" fill="#f07186" d="M 67.5,40.5 C 67.8661,55.5658 68.8661,70.5658 70.5,85.5C 69.5,85.5 68.5,85.5 67.5,85.5C 67.5,70.5 67.5,55.5 67.5,40.5 Z"/></g>
<g><path style="opacity:1" fill="#aa2b46" d="M 115.5,42.5 C 171.834,42.3333 228.168,42.5 284.5,43C 289.535,46.0133 290.702,50.1799 288,55.5C 286.786,57.0488 285.286,58.2155 283.5,59C 227.833,59.6667 172.167,59.6667 116.5,59C 108.937,53.8272 108.604,48.3272 115.5,42.5 Z"/></g>
<g><path style="opacity:1" fill="#aa2b46" d="M 115.5,76.5 C 151.835,76.3333 188.168,76.5 224.5,77C 229.738,80.2738 230.904,84.7738 228,90.5C 226.581,91.4601 225.081,92.2935 223.5,93C 187.5,93.6667 151.5,93.6667 115.5,93C 108.843,87.3271 108.843,81.8271 115.5,76.5 Z"/></g>
<g><path style="opacity:0.99" fill="#2f377e" d="M 304.5,315.5 C 307.724,311.407 310.724,307.074 313.5,302.5C 308.597,294.791 305.264,286.458 303.5,277.5C 299.51,277.001 295.51,276.501 291.5,276C 288.452,275.394 285.952,273.894 284,271.5C 281.621,262.647 280.955,253.647 282,244.5C 282.606,241.452 284.106,238.952 286.5,237C 291.965,234.94 297.632,233.774 303.5,233.5C 305.012,224.306 308.345,215.806 313.5,208C 310.601,203.678 307.601,199.511 304.5,195.5C 303.51,191.257 304.344,187.257 307,183.5C 311.594,176.904 317.427,171.738 324.5,168C 327.167,167.333 329.833,167.333 332.5,168C 336.434,170.884 340.601,173.384 345,175.5C 352.797,171.402 360.964,168.402 369.5,166.5C 370.115,161.474 370.949,156.474 372,151.5C 372.785,149.714 373.951,148.214 375.5,147C 380.977,145.073 386.644,144.24 392.5,144.5C 408.745,142.745 416.078,150.078 414.5,166.5C 423.19,168.009 431.357,171.009 439,175.5C 443.399,173.384 447.566,170.884 451.5,168C 454.167,167.333 456.833,167.333 459.5,168C 469.731,173.227 476.731,181.227 480.5,192C 478.601,198.075 475.601,203.575 471.5,208.5C 475.808,216.118 479.308,224.118 482,232.5C 486.074,233.597 490.24,234.43 494.5,235C 496.587,235.792 498.421,236.959 500,238.5C 504.667,249.833 504.667,261.167 500,272.5C 498.421,274.041 496.587,275.208 494.5,276C 490.24,276.57 486.074,277.403 482,278.5C 479.308,286.882 475.808,294.882 471.5,302.5C 475.601,307.425 478.601,312.925 480.5,319C 476.731,329.773 469.731,337.773 459.5,343C 456.833,343.667 454.167,343.667 451.5,343C 447.566,340.116 443.399,337.616 439,335.5C 431.357,339.991 423.19,342.991 414.5,344.5C 413.993,349.547 413.16,354.547 412,359.5C 411.215,361.286 410.049,362.786 408.5,364C 397.5,367.333 386.5,367.333 375.5,364C 373.951,362.786 372.785,361.286 372,359.5C 370.949,354.526 370.115,349.526 369.5,344.5C 360.964,342.598 352.797,339.598 345,335.5C 340.601,337.616 336.434,340.116 332.5,343C 329.833,343.667 327.167,343.667 324.5,343C 314.06,337.731 307.06,329.564 303.5,318.5C 303.685,317.416 304.018,316.416 304.5,315.5 Z M 384.5,213.5 C 411.883,212.098 428.383,224.765 434,251.5C 434.294,275.547 422.794,290.714 399.5,297C 370.307,298.31 353.641,284.477 349.5,255.5C 351.775,233.567 363.442,219.567 384.5,213.5 Z"/></g>
<g><path style="opacity:0.993" fill="#fbcb60" d="M 304.5,195.5 C 307.601,199.511 310.601,203.678 313.5,208C 308.345,215.806 305.012,224.306 303.5,233.5C 297.632,233.774 291.965,234.94 286.5,237C 284.106,238.952 282.606,241.452 282,244.5C 280.955,253.647 281.621,262.647 284,271.5C 285.952,273.894 288.452,275.394 291.5,276C 295.51,276.501 299.51,277.001 303.5,277.5C 305.264,286.458 308.597,294.791 313.5,302.5C 310.724,307.074 307.724,311.407 304.5,315.5C 229.499,315.667 154.499,315.5 79.5,315C 73.6405,313.141 69.8072,309.307 68,303.5C 67.3333,271.5 67.3333,239.5 68,207.5C 69.8333,201.667 73.6667,197.833 79.5,196C 154.499,195.5 229.499,195.333 304.5,195.5 Z"/></g>
<g><path style="opacity:0.991" fill="#20295e" d="M 383.5,195.5 C 418.622,194.629 441.122,210.962 451,244.5C 454.082,275.178 441.916,297.344 414.5,311C 384.984,320.605 360.817,313.105 342,288.5C 328.463,264.453 329.463,241.12 345,218.5C 355.219,206.313 368.052,198.646 383.5,195.5 Z M 384.5,213.5 C 363.442,219.567 351.775,233.567 349.5,255.5C 353.641,284.477 370.307,298.31 399.5,297C 422.794,290.714 434.294,275.547 434,251.5C 428.383,224.765 411.883,212.098 384.5,213.5 Z"/></g>
<g><path style="opacity:1" fill="#fffefc" d="M 108.5,221.5 C 128.527,220.359 137.361,229.692 135,249.5C 131.052,259.121 124.552,266.621 115.5,272C 120.167,272.333 124.833,272.667 129.5,273C 131.329,273.273 132.829,274.107 134,275.5C 136.904,281.226 135.738,285.726 130.5,289C 119.833,289.667 109.167,289.667 98.5,289C 96.3333,288.167 94.8333,286.667 94,284.5C 92.8384,278.443 93.8384,272.777 97,267.5C 104,260.5 111,253.5 118,246.5C 117.808,237.228 114.308,236.061 107.5,243C 97.4261,246.553 92.9261,243.053 94,232.5C 97.9507,227.466 102.784,223.799 108.5,221.5 Z"/></g>
<g><path style="opacity:1" fill="#ea9553" d="M 176.5,229.5 C 200.836,229.333 225.169,229.5 249.5,230C 255.368,233.04 256.868,237.54 254,243.5C 253.097,244.701 251.931,245.535 250.5,246C 225.167,246.667 199.833,246.667 174.5,246C 168.725,239.701 169.392,234.201 176.5,229.5 Z"/></g>
<g><path style="opacity:1" fill="#ea9553" d="M 174.5,264.5 C 194.169,264.333 213.836,264.5 233.5,265C 238.535,268.013 239.702,272.18 237,277.5C 235.786,279.049 234.286,280.215 232.5,281C 213.833,281.667 195.167,281.667 176.5,281C 169.309,276.306 168.642,270.806 174.5,264.5 Z"/></g>
<g><path style="opacity:0.999" fill="#346ddf" d="M 18.5,383.5 C 125.167,383.333 231.834,383.5 338.5,384C 343.333,386.167 346.833,389.667 349,394.5C 349.667,426.833 349.667,459.167 349,491.5C 347.092,497.74 342.925,501.573 336.5,503C 231.167,503.667 125.833,503.667 20.5,503C 14.3333,500.833 10.1667,496.667 8,490.5C 7.33333,459.167 7.33333,427.833 8,396.5C 9.53352,390.477 13.0335,386.144 18.5,383.5 Z"/></g>
<g><path style="opacity:1" fill="#fbfbfe" d="M 48.5,409.5 C 67.3335,408.17 76.5002,416.837 76,435.5C 75.0229,438.102 73.8563,440.602 72.5,443C 78.1369,452.474 77.6369,461.641 71,470.5C 58.1419,480.548 46.1419,479.548 35,467.5C 32.0004,460.166 34.3338,455.499 42,453.5C 46.2797,455.609 50.4463,457.942 54.5,460.5C 58.2831,459.563 59.7831,457.229 59,453.5C 55.4741,452.356 52.4741,450.356 50,447.5C 49.1834,444.036 49.5167,440.702 51,437.5C 53.571,435.647 56.2377,433.981 59,432.5C 59.6643,427.504 57.4977,425.67 52.5,427C 50.5448,427.953 48.8782,429.287 47.5,431C 41.3991,434.074 36.8991,432.574 34,426.5C 33.2937,424.029 33.627,421.695 35,419.5C 38.8018,415.037 43.3018,411.703 48.5,409.5 Z"/></g>
<g><path style="opacity:1" fill="#214d93" d="M 116.5,417.5 C 172.168,417.333 227.834,417.5 283.5,418C 289.544,420.932 291.044,425.432 288,431.5C 287.097,432.701 285.931,433.535 284.5,434C 228.167,434.667 171.833,434.667 115.5,434C 108.518,428.057 108.852,422.557 116.5,417.5 Z"/></g>
<g><path style="opacity:1" fill="#214d94" d="M 116.5,451.5 C 152.168,451.333 187.835,451.5 223.5,452C 229.092,454.402 230.925,458.569 229,464.5C 227.786,466.049 226.286,467.215 224.5,468C 188.167,468.667 151.833,468.667 115.5,468C 108.518,462.057 108.852,456.557 116.5,451.5 Z"/></g>
</svg>
