<?xml version="1.0" encoding="UTF-8"?>
<!DOCTYPE svg PUBLIC "-//W3C//DTD SVG 1.1//EN" "http://www.w3.org/Graphics/SVG/1.1/DTD/svg11.dtd">
<svg xmlns="http://www.w3.org/2000/svg" version="1.1" width="512px" height="512px" style="shape-rendering:geometricPrecision; text-rendering:geometricPrecision; image-rendering:optimizeQuality; fill-rule:evenodd; clip-rule:evenodd" xmlns:xlink="http://www.w3.org/1999/xlink">
<g><path style="opacity:0.998" fill="#285680" d="M 33.5,-0.5 C 169.5,-0.5 305.5,-0.5 441.5,-0.5C 458.309,4.14031 469.476,14.807 475,31.5C 476.461,56.1148 476.961,80.7815 476.5,105.5C 317.5,105.5 158.5,105.5 -0.5,105.5C -0.5,81.5 -0.5,57.5 -0.5,33.5C 4.83333,16.1667 16.1667,4.83333 33.5,-0.5 Z"/></g>
<g><path style="opacity:1" fill="#fc5364" d="M 48.5,34.5 C 66.9355,35.7641 73.1022,45.0975 67,62.5C 60.0062,69.9912 51.8395,71.4912 42.5,67C 30.433,53.6469 32.433,42.8135 48.5,34.5 Z"/></g>
<g><path style="opacity:1" fill="#eed15b" d="M 119.5,34.5 C 138.673,36.1851 144.507,45.8518 137,63.5C 124.202,74.2004 113.868,72.2004 106,57.5C 104.345,46.1345 108.845,38.4679 119.5,34.5 Z"/></g>
<g><path style="opacity:1" fill="#4eb76f" d="M 189.5,34.5 C 204.686,34.1846 211.853,41.5179 211,56.5C 207.469,66.6844 200.302,71.1844 189.5,70C 176.945,64.3392 173.445,55.1726 179,42.5C 181.975,38.9525 185.475,36.2858 189.5,34.5 Z"/></g>
<g><path style="opacity:1" fill="#4380c0" d="M 330.5,34.5 C 362.835,34.3334 395.168,34.5 427.5,35C 440.351,40.5418 443.851,49.7084 438,62.5C 434.835,66.666 430.668,69.166 425.5,70C 394.167,70.6667 362.833,70.6667 331.5,70C 320.44,66.0576 315.94,58.2243 318,46.5C 320.744,40.9206 324.911,36.9206 330.5,34.5 Z"/></g>
<g><path style="opacity:0.999" fill="#eaeeef" d="M -0.5,105.5 C 158.5,105.5 317.5,105.5 476.5,105.5C 476.5,137.833 476.5,170.167 476.5,202.5C 353.833,202.333 231.166,202.5 108.5,203C 97.6667,205.833 90.8333,212.667 88,223.5C 87.5,245.831 87.3334,268.164 87.5,290.5C 87.5,352.5 87.5,414.5 87.5,476.5C 70.1635,476.667 52.8301,476.5 35.5,476C 16.7532,471.418 4.75319,459.918 -0.5,441.5C -0.5,329.5 -0.5,217.5 -0.5,105.5 Z"/></g>
<g><path style="opacity:1" fill="#285680" d="M 476.5,202.5 C 493.381,199.766 505.048,206.099 511.5,221.5C 511.5,244.5 511.5,267.5 511.5,290.5C 370.167,290.5 228.833,290.5 87.5,290.5C 87.3334,268.164 87.5,245.831 88,223.5C 90.8333,212.667 97.6667,205.833 108.5,203C 231.166,202.5 353.833,202.333 476.5,202.5 Z"/></g>
<g><path style="opacity:1" fill="#fbfbfc" d="M 454.5,229.5 C 459.561,228.665 463.895,229.999 467.5,233.5C 473.037,228.205 478.537,228.205 484,233.5C 485.332,238.553 484.165,242.886 480.5,246.5C 485.732,252.109 485.732,257.609 480.5,263C 478.305,264.373 475.971,264.706 473.5,264C 471.359,262.692 469.359,261.192 467.5,259.5C 462.259,265.63 456.759,265.963 451,260.5C 448.429,254.943 449.595,250.277 454.5,246.5C 447.845,240.797 447.845,235.13 454.5,229.5 Z"/></g>
<g><path style="opacity:1" fill="#dd6d7e" d="M 87.5,290.5 C 228.833,290.5 370.167,290.5 511.5,290.5C 511.5,290.833 511.5,291.167 511.5,291.5C 370.5,291.5 229.5,291.5 88.5,291.5C 88.8324,353.336 88.4991,415.002 87.5,476.5C 87.5,414.5 87.5,352.5 87.5,290.5 Z"/></g>
<g><path style="opacity:1" fill="#ff5364" d="M 511.5,291.5 C 511.5,358.5 511.5,425.5 511.5,492.5C 508.167,501.833 501.833,508.167 492.5,511.5C 363.833,511.5 235.167,511.5 106.5,511.5C 91.339,504.925 85.0057,493.258 87.5,476.5C 88.4991,415.002 88.8324,353.336 88.5,291.5C 229.5,291.5 370.5,291.5 511.5,291.5 Z"/></g>
<g><path style="opacity:1" fill="#fffefe" d="M 278.5,326.5 C 292.837,326.333 307.171,326.5 321.5,327C 325.327,330.308 326.494,334.474 325,339.5C 323.786,341.049 322.286,342.215 320.5,343C 306.5,343.667 292.5,343.667 278.5,343C 273.391,339.634 272.224,335.134 275,329.5C 276.145,328.364 277.312,327.364 278.5,326.5 Z"/></g>
<g><path style="opacity:1" fill="#fffbfb" d="M 243.5,361.5 C 280.835,361.333 318.168,361.5 355.5,362C 361.372,365.016 362.872,369.516 360,375.5C 358.421,377.041 356.587,378.208 354.5,379C 317.833,379.667 281.167,379.667 244.5,379C 235.623,373.504 235.29,367.67 243.5,361.5 Z"/></g>
<g><path style="opacity:1" fill="#efc219" d="M 248.5,414.5 C 282.168,414.333 315.835,414.5 349.5,415C 365.674,420.513 372.174,431.68 369,448.5C 365.417,458.724 358.251,464.891 347.5,467C 314.833,467.667 282.167,467.667 249.5,467C 230.532,459.112 225.032,445.612 233,426.5C 237.162,421.168 242.328,417.168 248.5,414.5 Z"/></g>
</svg>
