<?xml version="1.0" encoding="UTF-8"?>
<!DOCTYPE svg PUBLIC "-//W3C//DTD SVG 1.1//EN" "http://www.w3.org/Graphics/SVG/1.1/DTD/svg11.dtd">
<svg xmlns="http://www.w3.org/2000/svg" version="1.1" width="24px" height="24px" style="shape-rendering:geometricPrecision; text-rendering:geometricPrecision; image-rendering:optimizeQuality; fill-rule:evenodd; clip-rule:evenodd" xmlns:xlink="http://www.w3.org/1999/xlink">
<g><path style="opacity:0.977" fill="#33291a" d="M 23.5,4.5 C 23.5,6.5 23.5,8.5 23.5,10.5C 22.1667,11.1667 22.1667,11.8333 23.5,12.5C 23.5,14.5 23.5,16.5 23.5,18.5C 16.6153,18.0651 9.94861,19.0651 3.5,21.5C 1.55668,21.2133 0.223348,20.2133 -0.5,18.5C -0.5,13.8333 -0.5,9.16667 -0.5,4.5C 0.833333,4.5 2.16667,4.5 3.5,4.5C 2.79105,5.40397 1.79105,5.73731 0.5,5.5C 0.5,9.5 0.5,13.5 0.5,17.5C 5.5,17.5 10.5,17.5 15.5,17.5C 17.8333,17.5 20.1667,17.5 22.5,17.5C 22.7529,15.1727 22.0863,13.1727 20.5,11.5C 22.0863,9.82733 22.7529,7.82733 22.5,5.5C 20.1667,5.5 17.8333,5.5 15.5,5.5C 11.6286,5.81497 7.96192,5.48164 4.5,4.5C 8.61629,4.45932 12.6163,3.79266 16.5,2.5C 15.3572,4.10075 16.0239,4.76741 18.5,4.5C 19.5,4.33333 20.5,4.16667 21.5,4C 20.1254,2.73846 18.7921,2.23846 17.5,2.5C 20.1263,0.994113 22.1263,1.66078 23.5,4.5 Z"/></g>
<g><path style="opacity:1" fill="#e6c881" d="M 15.5,5.5 C 17.8333,5.5 20.1667,5.5 22.5,5.5C 22.7529,7.82733 22.0863,9.82733 20.5,11.5C 22.0863,13.1727 22.7529,15.1727 22.5,17.5C 20.1667,17.5 17.8333,17.5 15.5,17.5C 15.5,13.5 15.5,9.5 15.5,5.5 Z"/></g>
<g><path style="opacity:1" fill="#e8c981" d="M 3.5,4.5 C 3.83333,4.5 4.16667,4.5 4.5,4.5C 7.96192,5.48164 11.6286,5.81497 15.5,5.5C 15.5,9.5 15.5,13.5 15.5,17.5C 10.5,17.5 5.5,17.5 0.5,17.5C 0.5,13.5 0.5,9.5 0.5,5.5C 1.79105,5.73731 2.79105,5.40397 3.5,4.5 Z"/></g>
<g><path style="opacity:1" fill="#3d587b" d="M 4.5,9.5 C 6.5,9.5 8.5,9.5 10.5,9.5C 10.9539,11.2589 10.9539,13.2589 10.5,15.5C 8.5,15.5 6.5,15.5 4.5,15.5C 4.04607,13.2589 4.04607,11.2589 4.5,9.5 Z"/></g>
<g><path style="opacity:1" fill="#421c1a" d="M 10.5,9.5 C 8.5,9.5 6.5,9.5 4.5,9.5C 4.28099,8.32496 4.61432,7.32496 5.5,6.5C 7.75944,6.7845 9.4261,7.7845 10.5,9.5 Z"/></g>
<g><path style="opacity:1" fill="#dea56a" d="M 16.5,2.5 C 16.8333,2.5 17.1667,2.5 17.5,2.5C 18.7921,2.23846 20.1254,2.73846 21.5,4C 20.5,4.16667 19.5,4.33333 18.5,4.5C 16.0239,4.76741 15.3572,4.10075 16.5,2.5 Z"/></g>
<g><path style="opacity:1" fill="#e5a96c" d="M 1.5,19.5 C 3.28841,18.3775 5.28841,18.2109 7.5,19C 5.45212,20.2414 3.45212,20.4081 1.5,19.5 Z"/></g>
</svg>
