<?xml version="1.0" encoding="UTF-8"?>
<!DOCTYPE svg PUBLIC "-//W3C//DTD SVG 1.1//EN" "http://www.w3.org/Graphics/SVG/1.1/DTD/svg11.dtd">
<svg xmlns="http://www.w3.org/2000/svg" version="1.1" width="24px" height="24px" style="shape-rendering:geometricPrecision; text-rendering:geometricPrecision; image-rendering:optimizeQuality; fill-rule:evenodd; clip-rule:evenodd" xmlns:xlink="http://www.w3.org/1999/xlink">
<g><path style="opacity:0.437" fill="#1e1b16" d="M 1.5,-0.5 C 6.16667,-0.5 10.8333,-0.5 15.5,-0.5C 17.7641,1.31369 20.0975,3.14702 22.5,5C 21.9341,5.9947 21.2674,6.82803 20.5,7.5C 20.5875,4.4017 20.0875,4.06837 19,6.5C 18.7398,4.38247 17.7398,2.7158 16,1.5C 14.6703,2.58218 13.1703,3.24885 11.5,3.5C 11.5,2.5 11.5,1.5 11.5,0.5C 9.83333,0.5 8.16667,0.5 6.5,0.5C 6.5,2.83333 6.5,5.16667 6.5,7.5C 6.16667,7.5 5.83333,7.5 5.5,7.5C 5.7989,5.39605 5.46557,3.39605 4.5,1.5C 2.71745,3.02253 2.05078,5.02253 2.5,7.5C 2.5,7.83333 2.5,8.16667 2.5,8.5C 2.5,12.5 2.5,16.5 2.5,20.5C 3.83333,20.5 5.16667,20.5 6.5,20.5C 6.26269,19.209 6.59603,18.209 7.5,17.5C 6.84156,21.6772 8.50822,23.1772 12.5,22C 13.056,21.6174 13.3893,21.1174 13.5,20.5C 14.1667,20.5 14.5,20.8333 14.5,21.5C 14.1667,22.1667 13.8333,22.8333 13.5,23.5C 11.5,23.5 9.5,23.5 7.5,23.5C 5.69984,21.9496 3.53317,20.9496 1,20.5C 0.666642,13.4952 0.833308,6.49522 1.5,-0.5 Z"/></g>
<g><path style="opacity:1" fill="#7aa2d8" d="M 11.5,3.5 C 10.4489,4.22235 9.78219,5.22235 9.5,6.5C 8.60895,7.10978 7.60895,7.44312 6.5,7.5C 6.5,5.16667 6.5,2.83333 6.5,0.5C 8.16667,0.5 9.83333,0.5 11.5,0.5C 11.5,1.5 11.5,2.5 11.5,3.5 Z"/></g>
<g><path style="opacity:0.906" fill="#3e4d68" d="M 5.5,7.5 C 4.5,7.5 3.5,7.5 2.5,7.5C 2.05078,5.02253 2.71745,3.02253 4.5,1.5C 5.46557,3.39605 5.7989,5.39605 5.5,7.5 Z"/></g>
<g><path style="opacity:1" fill="#94ab50" d="M 20.5,7.5 C 19.8333,7.5 19.1667,7.5 18.5,7.5C 17.2502,7.42265 16.4169,6.75598 16,5.5C 15.6121,6.42797 14.9454,7.09464 14,7.5C 12.4024,7.06955 10.9024,6.73622 9.5,6.5C 9.78219,5.22235 10.4489,4.22235 11.5,3.5C 13.1703,3.24885 14.6703,2.58218 16,1.5C 17.7398,2.7158 18.7398,4.38247 19,6.5C 20.0875,4.06837 20.5875,4.4017 20.5,7.5 Z"/></g>
<g><path style="opacity:1" fill="#6b493d" d="M 18.5,7.5 C 18.5,7.83333 18.5,8.16667 18.5,8.5C 13.1667,8.5 7.83333,8.5 2.5,8.5C 2.5,8.16667 2.5,7.83333 2.5,7.5C 3.5,7.5 4.5,7.5 5.5,7.5C 5.83333,7.5 6.16667,7.5 6.5,7.5C 7.60895,7.44312 8.60895,7.10978 9.5,6.5C 10.9024,6.73622 12.4024,7.06955 14,7.5C 14.9454,7.09464 15.6121,6.42797 16,5.5C 16.4169,6.75598 17.2502,7.42265 18.5,7.5 Z"/></g>
<g><path style="opacity:1" fill="#ed8c84" d="M 2.5,8.5 C 7.83333,8.5 13.1667,8.5 18.5,8.5C 19.404,9.20895 19.7373,10.209 19.5,11.5C 16.0504,10.7564 14.3838,12.0897 14.5,15.5C 13.8333,15.5 13.1667,15.5 12.5,15.5C 10.2188,15.0773 8.55213,15.744 7.5,17.5C 6.59603,18.209 6.26269,19.209 6.5,20.5C 5.16667,20.5 3.83333,20.5 2.5,20.5C 2.5,16.5 2.5,12.5 2.5,8.5 Z"/></g>
<g><path style="opacity:1" fill="#ba7c6e" d="M 15.5,21.5 C 15.1667,21.5 14.8333,21.5 14.5,21.5C 14.5,20.8333 14.1667,20.5 13.5,20.5C 13.7678,18.901 13.4345,17.5676 12.5,16.5C 12.5,16.1667 12.5,15.8333 12.5,15.5C 13.1667,15.5 13.8333,15.5 14.5,15.5C 16.8543,16.4935 17.8543,15.4935 17.5,12.5C 18.5,12.5 19.5,12.5 20.5,12.5C 20.1667,15.1667 19.8333,17.8333 19.5,20.5C 17.901,20.2322 16.5676,20.5655 15.5,21.5 Z"/></g>
<g><path style="opacity:1" fill="#eab92d" d="M 12.5,16.5 C 13.4345,17.5676 13.7678,18.901 13.5,20.5C 13.3893,21.1174 13.056,21.6174 12.5,22C 8.50822,23.1772 6.84156,21.6772 7.5,17.5C 9.78962,15.9671 10.4563,16.3004 9.5,18.5C 9.97598,21.2012 10.976,21.7012 12.5,20C 11.2089,18.7083 11.2089,17.5417 12.5,16.5 Z"/></g>
<g><path style="opacity:0.843" fill="#31211e" d="M 18.5,8.5 C 18.5,8.16667 18.5,7.83333 18.5,7.5C 19.1667,7.5 19.8333,7.5 20.5,7.5C 20.3205,9.95412 20.9872,12.1208 22.5,14C 21.1287,16.3187 20.4621,18.8187 20.5,21.5C 18.8333,21.5 17.1667,21.5 15.5,21.5C 16.5676,20.5655 17.901,20.2322 19.5,20.5C 19.8333,17.8333 20.1667,15.1667 20.5,12.5C 19.5,12.5 18.5,12.5 17.5,12.5C 17.8543,15.4935 16.8543,16.4935 14.5,15.5C 14.3838,12.0897 16.0504,10.7564 19.5,11.5C 19.7373,10.209 19.404,9.20895 18.5,8.5 Z"/></g>
<g><path style="opacity:1" fill="#705819" d="M 12.5,15.5 C 12.5,15.8333 12.5,16.1667 12.5,16.5C 11.2089,17.5417 11.2089,18.7083 12.5,20C 10.976,21.7012 9.97598,21.2012 9.5,18.5C 10.4563,16.3004 9.78962,15.9671 7.5,17.5C 8.55213,15.744 10.2188,15.0773 12.5,15.5 Z"/></g>
</svg>
